<?xml version="1.0" standalone="no"?>
<!DOCTYPE svg PUBLIC "-//W3C//DTD SVG 1.1//EN" "http://www.w3.org/Graphics/SVG/1.1/DTD/svg11.dtd" >
<svg xmlns="http://www.w3.org/2000/svg" xmlns:xlink="http://www.w3.org/1999/xlink" version="1.1">
<metadata>
Created by FontForge 20170731 at Tue Jul 23 07:09:32 2019
 By Aleksey,,,
Copyright (c) 2019 by Moly Mol. All rights reserved.
</metadata>
<defs>
<font id="CameliyaStark" horiz-adv-x="833" >
  <font-face 
    font-family="Cameliya Stark"
    font-weight="400"
    font-stretch="normal"
    units-per-em="1000"
    panose-1="2 0 5 5 0 0 0 2 0 2"
    ascent="750"
    descent="-250"
    x-height="297"
    cap-height="921.5"
    bbox="-403.882 -598.765 2471.73 1386"
    underline-thickness="50"
    underline-position="-150"
    unicode-range="U+000D-FB02"
  />
<missing-glyph horiz-adv-x="161" 
 />
    <glyph glyph-name=".notdef" horiz-adv-x="161" 
 />
    <glyph glyph-name=".null" horiz-adv-x="0" 
 />
    <glyph glyph-name="nonmarkingreturn" unicode="&#xd;" horiz-adv-x="161" 
 />
    <glyph glyph-name="NULL" horiz-adv-x="0" 
 />
    <glyph glyph-name="NULL" horiz-adv-x="0" 
 />
    <glyph glyph-name="space" unicode=" " horiz-adv-x="161" 
 />
    <glyph glyph-name="exclam" unicode="!" horiz-adv-x="519" 
d="M476 453q-85 -96 -167 -189t-168 -187q-6 -7 -10.5 -2.5t0.5 11.5q36 44 76 95.5t80.5 102t79 97.5t71.5 82q9 9 17.5 10t14.5 -2t8 -8.5t-2 -9.5zM99 35q7 -7 2.5 -20t-15 -24.5t-23 -17.5t-19.5 2q-8 9 -3 21.5t15.5 23t23 16t19.5 -0.5z" />
    <glyph glyph-name="quotedbl" unicode="&#x22;" 
 />
    <glyph glyph-name="numbersign" unicode="#" horiz-adv-x="504" 
 />
    <glyph glyph-name="dollar" unicode="$" 
 />
    <glyph glyph-name="percent" unicode="%" horiz-adv-x="475" 
 />
    <glyph glyph-name="ampersand" unicode="&#x26;" horiz-adv-x="863" 
 />
    <glyph glyph-name="quotesingle" unicode="'" 
 />
    <glyph glyph-name="parenleft" unicode="(" horiz-adv-x="624" 
 />
    <glyph glyph-name="parenright" unicode=")" horiz-adv-x="628" 
 />
    <glyph glyph-name="asterisk" unicode="*" horiz-adv-x="288" 
 />
    <glyph glyph-name="plus" unicode="+" horiz-adv-x="321" 
 />
    <glyph glyph-name="comma" unicode="," horiz-adv-x="137" 
d="M123 98q-9 -11 -33.5 -27.5t-74.5 -32.5q-6 -1 -7.5 4.5t3.5 7.5q19 3 30 10.5t19.5 18t15.5 22t18 20.5q7 7 15.5 8t13.5 -2.5t6 -11t-6 -17.5z" />
    <glyph glyph-name="hyphen" unicode="-" horiz-adv-x="311" 
 />
    <glyph glyph-name="period" unicode="." horiz-adv-x="90" 
 />
    <glyph glyph-name="slash" unicode="/" 
 />
    <glyph glyph-name="zero" unicode="0" horiz-adv-x="362" 
d="M315 264q-14 -28 -35.5 -58t-46.5 -57t-52.5 -49t-53.5 -33q-11 -5 -25.5 -8t-28.5 -2.5t-26.5 7t-20.5 21.5q-14 26 -6.5 57.5t25 62.5t40 57t37.5 40q30 28 64 48.5t67 28.5q27 6 50.5 3t31.5 -25q3 -10 2 -22.5t-4.5 -25.5t-8.5 -24.5t-9 -20.5zM257 368
q-42 -18 -82 -53t-70 -76q-9 -12 -19.5 -29t-19 -35.5t-13 -37.5t-2.5 -37q2 -17 9.5 -25t17.5 -10.5t22 0t23 7.5q26 11 53.5 32.5t52 48t45.5 56.5t35 58q4 7 8.5 18.5t8.5 24t5 25t-3 22.5q-4 9 -11.5 13.5t-17.5 5.5t-21 -1.5t-21 -6.5z" />
    <glyph glyph-name="one" unicode="1" horiz-adv-x="309" 
d="M12 66q23 29 62 76t81 95q26 32 51 60.5t43 51.5q14 17 23 29t16 20q-30 -8 -58.5 -16.5t-55.5 -17.5q-3 -1 -4 1.5t1 4.5q32 11 62.5 19.5t62.5 16.5q3 0 3 -3t-5.5 -12t-12.5 -18.5t-13 -18.5l-8 -12q-18 -26 -41 -57t-45.5 -62t-43 -58.5t-33.5 -44.5q-17 -20 -36 -35
t-43 -24q-5 -2 -6.5 0.5t0.5 4.5z" />
    <glyph glyph-name="two" unicode="2" horiz-adv-x="405" 
d="M108 92q19 10 46 26.5t56 37.5t57 45.5t50 50.5t33.5 52.5t8.5 50.5q-3 19 -14 29.5t-26 13.5t-31 0t-27 -12q-14 -11 -23 -28t-9 -43q0 -2 -3 -2t-3 3q0 27 10 46t24 30q17 13 41 17t45.5 -2.5t36 -24.5t11.5 -48q-6 -45 -37 -82t-72.5 -67t-86.5 -53.5t-79 -42.5
q18 -5 37 -10t41.5 -4.5t48.5 7.5t57 26q2 2 3.5 0t-0.5 -4q-23 -23 -48 -36.5t-61 -11.5q-21 1 -45 7.5t-53 15.5q-11 -5 -30 -13t-36 -6q-20 2 -22.5 15t12.5 21q20 10 43 7t45 -11zM86 82q-17 4 -32.5 7.5t-30.5 -2.5q-12 -5 -8 -12.5t16 -8.5q14 -1 30.5 5t24.5 11z" />
    <glyph glyph-name="three" unicode="3" horiz-adv-x="349" 
d="M242 371q-2 -2 -5 0t-1 5q11 19 31 28t38 8t28.5 -13t4.5 -35q-6 -20 -25 -35.5t-42 -26.5q-20 -9 -38.5 -14t-36.5 -10q17 -8 26 -28.5t7 -38.5q-4 -27 -18.5 -53t-35.5 -46.5t-47 -34.5t-52 -17q-13 -2 -27 -0.5t-25 7t-16.5 16.5t-1.5 28q1 3 5 2.5t2 -5.5
q-2 -16 4.5 -26t24.5 -11q22 -1 44 11.5t39 24.5q38 29 57.5 61t24.5 58q2 12 -1 28.5t-20 19.5q-9 -4 -19.5 -8t-20.5 -6q-9 -2 -8 1t5 6q13 9 23.5 11.5t18.5 1.5q15 6 35.5 15.5t39 21.5t32.5 26.5t17 31.5q3 16 -4.5 22t-18.5 4.5t-23.5 -9.5t-20.5 -21z" />
    <glyph glyph-name="four" unicode="4" horiz-adv-x="230" 
d="M169 408q0 3 3 3t3 -4q0 -35 -21.5 -62t-45.5 -49q-23 -19 -43 -36t-37 -35q-6 -8 -1.5 -11.5t14 -4t20.5 0.5t17 1q19 2 35.5 3.5t22.5 2.5q11 17 22 32.5t21 31.5q1 1 8.5 5.5t15.5 7.5t13.5 3.5t2.5 -4.5q-38 -57 -76 -112.5t-78 -110.5q-5 -6 -12 -9.5t-13 -4.5
t-10 1t-2 5q27 37 52.5 73.5t51.5 74.5l-52 -5q-8 -1 -20.5 -2t-24 0t-18.5 6t-4 17q5 15 25 36.5t45 44.5q15 13 29 27t26 27t20.5 25t10.5 22z" />
    <glyph glyph-name="five" unicode="5" horiz-adv-x="372" 
d="M365 387q-14 -16 -34.5 -18.5t-43.5 -1.5q-30 1 -51 -5t-36 -18.5t-27 -31t-25 -42.5q26 14 46.5 21.5t36.5 11.5q32 6 47.5 -9.5t13.5 -47.5q-2 -24 -13.5 -50.5t-28 -50.5t-37.5 -43.5t-42 -30.5q-23 -11 -48.5 -14.5t-51.5 1.5q-17 4 -33 12.5t-28 23.5q-2 3 0.5 5
t4.5 -1q11 -14 26 -22.5t30 -10.5q34 -6 63.5 8.5t53 39t40.5 55t28 56.5q3 9 7 22.5t3.5 25.5t-8 19.5t-25.5 4.5q-32 -6 -92 -37q-2 -2 -3.5 0t-0.5 4q13 26 27 48.5t31.5 39t39 26t51.5 8.5q16 -1 33.5 0t40.5 8q5 2 6.5 0t-1.5 -6z" />
    <glyph glyph-name="six" unicode="6" horiz-adv-x="313" 
d="M88 215q29 23 52 33q31 14 50.5 8.5t27 -23t3 -42.5t-21.5 -49q-20 -27 -43.5 -46t-45.5 -30q-16 -8 -33 -11t-31.5 1t-25 16t-11.5 35q-2 28 12.5 60t36 61.5t44.5 53.5t38 38q42 36 85 59t80 22q3 0 3 -3.5t-3 -3.5q-27 -4 -56.5 -20.5t-58.5 -42.5
q-28 -26 -54.5 -55.5t-47.5 -60.5zM142 242q-15 -8 -32.5 -19.5t-35.5 -30.5q-12 -19 -24.5 -43t-16.5 -47q-3 -20 3 -29.5t17 -11.5t24.5 1.5t25.5 10.5q25 16 47.5 42t35.5 53q8 16 11 33.5t-1.5 30t-17.5 16.5t-36 -6z" />
    <glyph glyph-name="seven" unicode="7" horiz-adv-x="297" 
d="M80 349q8 22 18 32.5t23 12.5t30 -3t40 -14q23 -11 44 -16t38 11q4 4 6.5 8t5.5 9q2 3 4.5 1t0.5 -4q-26 -53 -54 -88t-57 -68q-26 -28 -51 -57.5t-51 -71.5q-5 -8 -11 -17t-13.5 -17t-17 -13.5t-20.5 -5.5q-1 0 -4.5 0.5t-1.5 4.5q22 46 52.5 85t64.5 74.5t69 69.5
t65 70q-14 -5 -30 -2t-33 10q-13 4 -26.5 7.5t-27.5 3.5t-28.5 -5.5t-29.5 -20.5q-2 -2 -4.5 0t-0.5 4z" />
    <glyph glyph-name="eight" unicode="8" horiz-adv-x="308" 
d="M164 225q14 6 37 18t44 28t35.5 35.5t11.5 40.5q-4 24 -24.5 30t-38.5 -2q-34 -17 -54 -52q-11 -20 -15 -46t4 -52zM165 218q8 -35 4 -63t-21 -54q-11 -17 -32.5 -33t-45.5 -20q-35 -5 -52 17.5t-8 52.5q9 26 39 53t89 47q-10 32 -5 60.5t22 53.5q13 20 32 34t39 19
q12 3 24 2.5t22.5 -4.5t17.5 -12.5t9 -23.5q3 -22 -11.5 -42.5t-36.5 -37.5t-46 -29.5t-40 -19.5zM67 57q18 5 32.5 18.5t25.5 32.5q12 21 16.5 49t-1.5 54q-57 -19 -86 -44.5t-37 -51.5q-3 -13 -1.5 -25t8 -20.5t17.5 -12.5t26 0z" />
    <glyph glyph-name="nine" unicode="9" horiz-adv-x="319" 
d="M227 237q-9 -8 -18 -14.5t-18 -11.5q-18 -11 -41.5 -15.5t-40.5 9.5q-16 15 -17 33.5t7.5 38t24 38.5t33.5 35t35.5 28t30.5 16q10 3 21 5t22 0.5t20.5 -8t15.5 -18.5q13 -28 1 -63.5t-34.5 -70t-49.5 -63t-43 -43.5q-41 -36 -84 -59.5t-79 -20.5q-3 0 -3.5 2.5t2.5 3.5
q27 3 56 20t58 43q29 25 55 55t46 60zM188 218q14 8 32.5 22.5t27.5 28.5q23 37 31 62t4 41q-2 10 -9 14.5t-15.5 5.5t-18 -1.5t-15.5 -5.5q-15 -8 -38 -28.5t-41.5 -45.5t-27 -50.5t5.5 -43.5q6 -8 14.5 -10t17.5 -1t17.5 4.5t14.5 7.5z" />
    <glyph glyph-name="colon" unicode=":" horiz-adv-x="238" 
d="M68 126q7 -9 1.5 -22t-16 -23.5t-22.5 -16t-18 1.5q-7 9 -1.5 21.5t16 23.5t22.5 16t18 -1zM227 310q8 -9 2.5 -21.5t-16.5 -23t-24 -15.5t-19 1q-7 7 -1.5 19.5t16 23.5t23 17t19.5 -1z" />
    <glyph glyph-name="semicolon" unicode=";" horiz-adv-x="295" 
d="M126 98q-9 -11 -33.5 -27.5t-73.5 -32.5q-7 -2 -9 4t5 8q18 3 29 10.5t19 17.5t14.5 21t17.5 22q8 7 16.5 8t14 -2.5t6.5 -11t-6 -17.5zM273 310q7 -7 2 -19t-15 -22.5t-22 -15.5t-19 2q-8 8 -3.5 20.5t14.5 22.5t22.5 14.5t20.5 -2.5z" />
    <glyph glyph-name="less" unicode="&#x3c;" horiz-adv-x="547" 
 />
    <glyph glyph-name="equal" unicode="=" horiz-adv-x="258" 
 />
    <glyph glyph-name="greater" unicode="&#x3e;" horiz-adv-x="553" 
 />
    <glyph glyph-name="question" unicode="?" horiz-adv-x="475" 
 />
    <glyph glyph-name="at" unicode="@" horiz-adv-x="550" 
 />
    <glyph glyph-name="A" unicode="A" horiz-adv-x="1009" 
d="M1324 584q3 5 6.5 2t1.5 -6q-39 -54 -88.5 -91.5t-106.5 -63t-121 -40t-132 -23.5q-4 -24 -10.5 -66t-11 -91.5t-5 -101t7.5 -95t27 -74t53 -36.5q4 -1 3 -5t-6 -3q-35 7 -56.5 37t-33 73t-14.5 94.5t-1.5 101.5t6 93t7.5 70q-67 -7 -132.5 -11t-131.5 -6
q-46 -84 -93.5 -162t-99.5 -146q-23 -30 -57.5 -68.5t-75 -69.5t-84.5 -46.5t-85 1.5q-27 12 -44 33t-26 47t-10.5 54t1.5 54q7 48 28 89t52 74t70.5 57.5t82.5 39.5q74 26 155.5 35t178.5 14q42 75 82.5 151t85.5 151q30 52 60.5 97.5t61.5 82.5t63 62.5t65 37.5q8 2 8 -5
v-10q-11 -57 -27 -122t-28 -122q-17 -75 -33 -149.5t-30 -150.5q65 9 127.5 24t119 39.5t105 61t85.5 88.5zM852 368q17 134 47 269.5t65 266.5q-55 -32 -107 -101.5t-104 -158.5q-44 -74 -83.5 -148t-79.5 -147q65 4 130.5 8t131.5 11zM575 340q-91 -5 -174.5 -14.5
t-153.5 -35.5q-44 -16 -82.5 -40.5t-68 -57.5t-48 -74.5t-22.5 -91.5q0 -23 4.5 -47t14 -46t24.5 -39.5t36 -27.5q24 -11 50.5 -7.5t53.5 17t53 34t49 43.5t42 45.5t33 39.5q52 68 98 144.5t91 157.5z" />
    <glyph glyph-name="B" unicode="B" horiz-adv-x="656" 
d="M103 318q3 -3 0 -6.5t-7 0.5q-56 55 -77.5 122t9.5 143q24 62 69 114t103.5 93.5t127 73t139.5 52.5t141.5 32t132.5 11q41 0 86 -5t88.5 -17.5t81.5 -34t66 -53.5q29 -38 35 -76.5t-5 -76t-35 -72.5t-54.5 -66t-64.5 -56t-64 -43q-94 -55 -195.5 -90.5t-206.5 -60.5
q-51 -12 -106 -21t-106 -20q23 -5 49.5 -13.5t51.5 -22t45.5 -31.5t32.5 -41q38 13 73.5 21.5t66.5 8.5q5 0 5 -4t-5 -4q-30 0 -65.5 -8.5t-70.5 -20.5q14 -35 6.5 -68.5t-29 -63t-54 -54.5t-69 -42.5t-74 -27t-67.5 -8.5q-17 1 -32 4.5t-24 11t-9.5 20t11.5 30.5
q20 30 60.5 60t87 57t92.5 48.5t78 33.5q-10 25 -30 44.5t-44.5 33t-51.5 22t-51 11.5q-29 -78 -48.5 -136t-22.5 -84q0 -6 -8.5 -4t-10.5 4q-17 9 -16.5 37.5t14 69t36.5 89.5t51.5 100t58 100.5t56 90.5t47 70t29.5 39q3 4 6 1.5t1 -5.5q-58 -81 -104.5 -175t-85.5 -187
q52 10 110 20.5t111 25.5q105 27 201 67t185 95q74 46 120.5 98.5t64.5 104t8 98.5t-47.5 83t-102.5 58t-157 23q-61 0 -130 -10.5t-139 -31t-138 -51.5t-125.5 -71.5t-102 -91.5t-68.5 -112q-29 -73 -8.5 -137t74.5 -118zM424 140q-21 -8 -48.5 -20.5t-58 -27.5t-62 -33
t-59.5 -37.5t-50.5 -39.5t-35.5 -39q-10 -15 -9 -25t9.5 -16t21 -8t25.5 -2q28 -1 62 8t67 26t62.5 40t49.5 51t28 59t-2 64z" />
    <glyph glyph-name="C" unicode="C" horiz-adv-x="679" 
d="M857 791q-2 -5 -6 -3.5t-2 5.5q18 54 10 88t-34 50t-66.5 15t-88.5 -16q-68 -23 -135.5 -65.5t-130 -99t-118 -124t-100 -140t-76.5 -147t-46 -144.5q-8 -41 -10 -89t6 -94t30 -85.5t62 -63.5q34 -17 72.5 -19t76 6.5t72.5 25t63 37.5q66 49 114.5 110.5t66.5 127.5
q1 5 6.5 4.5t3.5 -6.5q-9 -34 -26.5 -68t-42.5 -66t-54.5 -60.5t-62.5 -51.5t-68 -40t-71.5 -25.5t-74.5 -6.5t-77 17q-51 21 -81 61t-44 88.5t-15 101t6 99.5q12 75 45 152t81.5 151t109 142t128.5 124t141 97t145 62q49 14 92 14.5t71 -17t37 -53.5t-9 -94z" />
    <glyph glyph-name="D" unicode="D" horiz-adv-x="1237" 
d="M560 922q5 4 8.5 1t-1.5 -7q-50 -47 -89.5 -110.5t-65.5 -126.5q33 48 76.5 89.5t93 75t103 58.5t106.5 40q52 15 104.5 19t100.5 -4.5t87 -29.5t64 -56t32 -84.5t-10 -115.5q-17 -70 -56.5 -143t-96.5 -144q55 -18 111 -41t114 -53q5 -4 2.5 -7t-6.5 -1q-116 61 -228 94
q-41 -55 -97 -112t-121.5 -111t-138 -103t-146.5 -86.5t-147.5 -60.5t-140.5 -27q-61 -4 -106 11.5t-69 47t-24.5 77t27.5 102.5q31 61 83 111t108 87q21 66 47 138t58 143t69.5 137.5t81.5 120.5q17 20 32.5 37t34.5 34zM381 607q-24 -63 -46 -130t-41 -133q62 33 136.5 56
t160 32t181.5 1t201 -38q21 28 46.5 67t48 83.5t40 92.5t23 94t-4 87.5t-39.5 74.5q-28 27 -64.5 40t-76 16t-79.5 -2.5t-74 -15.5q-61 -17 -122.5 -47t-116.5 -71.5t-100 -93.5t-73 -113zM291 334q-17 -66 -32 -126t-26 -113q-1 -4 -6.5 -4.5t-12.5 2t-13 7.5t-8 13
q-3 11 2 37t12.5 55t15 56t10.5 39q-52 -37 -101 -84.5t-78 -107.5q-26 -55 -26 -98t22.5 -71.5t65.5 -42t102 -10.5q67 5 137.5 29.5t140 62.5t137 87t128.5 103t113.5 110.5t93.5 109.5q-105 30 -200.5 37.5t-180.5 -2t-159.5 -33t-136.5 -56.5z" />
    <glyph glyph-name="E" unicode="E" 
d="M529 895q-5 -4 -8 -1.5t0 6.5q22 20 56.5 26.5t74.5 8.5q32 20 71 28.5t75 2.5q37 -6 31.5 -16.5t-39.5 -15.5q-30 -5 -59.5 -5.5t-60.5 -1.5q-22 -13 -41 -34t-29 -46q-9 -23 -6 -40.5t13.5 -30.5t27.5 -22.5t36 -16.5q18 -6 24 -10t3 -5.5t-13 -2.5t-23 -1
q-98 -7 -183 -40.5t-155 -84.5t-124 -116t-89 -135q-23 -50 -37 -102t-16 -101.5t9 -95t39 -81t73 -59t111 -30.5q42 -4 84.5 2.5t83 20.5t78.5 35t71 46q73 56 130 135.5t96 177.5q2 5 5.5 3.5t1.5 -7.5q-38 -97 -96 -178t-131 -138q-82 -62 -173 -90t-185 -17
q-67 8 -114 33.5t-76.5 63t-42.5 85.5t-10.5 100.5t19 108.5t45.5 110q37 70 94.5 135.5t132 115.5t165 80.5t192.5 31.5q19 0 24.5 -1.5t-14.5 5.5q-21 7 -41.5 16t-35 22.5t-20 32.5t2.5 45q8 23 26 44.5t39 34.5q-35 -2 -65 -9t-47 -22zM683 936q25 1 53 1.5t55 5.5
q23 4 28.5 7t-22.5 8q-29 5 -59 -2t-55 -20z" />
    <glyph glyph-name="F" unicode="F" horiz-adv-x="743" 
d="M17 502q-4 -3 -6.5 1t0.5 6q56 58 119.5 93t131 52.5t137.5 20t141 -4.5q53 56 112 104.5t123.5 86.5t135.5 63.5t149 35.5q103 10 168 -12t97 -60.5t33 -87t-25 -93t-76 -77t-119 -39.5q-65 -6 -135.5 0.5t-143 18.5t-145 25.5t-139.5 21.5q-76 -83 -139 -178t-112 -195
q37 -10 81 -20.5t89 -13.5t87 5t75 35q5 3 8 -1t-1 -7q-35 -28 -78.5 -36t-89.5 -5t-91.5 13.5t-83.5 20.5q-42 -90 -65.5 -176t-28.5 -161q-4 -54 15 -66.5t54 14.5q3 3 6 0.5t0 -5.5q-10 -9 -23.5 -16.5t-28 -10.5t-29 0t-26.5 15q-16 18 -18.5 51t3 73.5t17.5 84.5
t26.5 84.5t28.5 73.5t24 51q-36 10 -64 11.5t-41 -8.5q-2 -4 -4.5 -1t0.5 7q13 14 43.5 11t70.5 -11q48 99 111.5 192t141.5 174q-69 6 -137.5 3t-133.5 -20t-126.5 -51t-118.5 -92zM583 665q66 -8 137 -21.5t142 -25.5t141 -18t135 1q65 6 112.5 37t72 73t24 87.5t-30.5 82
t-92 57t-160 10.5q-131 -19 -253 -94.5t-228 -188.5z" />
    <glyph glyph-name="G" unicode="G" horiz-adv-x="1093" 
d="M955 541q1 -11 -6.5 -34.5t-20 -53t-28.5 -62t-31 -62t-27.5 -52.5t-18.5 -34q63 21 134 34t136 13q5 0 5 -4t-5 -4q-66 0 -138.5 -14.5t-137.5 -34.5q-21 -40 -49 -86.5t-59 -92t-64 -86.5t-65 -69q-29 -26 -54 -34t-42.5 0t-24 31.5t2.5 59.5q13 51 46.5 94t77.5 77
t94.5 59.5t97.5 42.5q24 46 45.5 90.5t39.5 85t31 75.5t21 61q-30 -36 -73.5 -77t-96 -82.5t-111 -81t-119.5 -72.5q-39 -21 -86.5 -43.5t-98 -39t-101 -24.5t-96.5 -1q-41 7 -66.5 26.5t-38 48.5t-12 65.5t11.5 77.5q17 65 52.5 129.5t83.5 125.5t106 116.5t121 102.5
t128.5 83t128.5 58q43 15 91 26t94.5 13t89.5 -7.5t75.5 -34t51.5 -66.5t19 -106q-1 -4 -5 -4t-4 4q0 62 -18.5 102.5t-49.5 63.5t-72.5 31.5t-86.5 5.5t-92 -14.5t-89 -27.5q-69 -29 -134.5 -72t-125.5 -95t-113 -110.5t-96 -118.5q-15 -22 -37 -58t-42 -79t-34.5 -87.5
t-15 -83t17 -67t61.5 -37.5q42 -9 93 -2t102 23.5t99 39t84 42.5q64 36 125.5 78t115.5 85.5t98 86t72 78.5q3 4 8 3.5t10 -4t9.5 -9t5.5 -11.5zM574 -95q26 25 54 64.5t54.5 83.5t50 87.5t40.5 76.5q-45 -17 -93 -41.5t-90.5 -57.5t-74.5 -73.5t-44 -89.5q-8 -33 -3 -54
t20 -28.5t37 0t49 32.5z" />
    <glyph glyph-name="H" unicode="H" horiz-adv-x="1270" 
d="M829 855q-42 -100 -88.5 -203.5t-95.5 -207.5q72 19 146 41.5t146.5 50.5t141.5 63t131 80q37 60 75 124.5t83 120.5q20 23 37 32.5t26.5 6t9 -20.5t-15.5 -46q-17 -31 -39 -61t-47.5 -58t-52.5 -52.5t-54 -43.5q-42 -83 -83.5 -170.5t-82 -177t-78.5 -179t-72 -176.5
q-2 -4 -9 -2t-13.5 9t-9.5 17.5t2 24.5q66 162 147 322.5t168 310.5q-62 -42 -130.5 -76t-140.5 -61t-145.5 -49.5t-144.5 -41.5q-27 -55 -57.5 -115.5t-64.5 -121t-70 -117.5t-73 -105q-50 -67 -104 -97.5t-102.5 -31t-86 25t-54 70.5t-6.5 105t57 128q38 54 92.5 93
t122 69t144.5 53.5t160 44.5q11 25 26 60t31.5 74t34 79.5t33.5 77.5t29.5 68.5l22.5 52.5q7 16 17.5 21.5t19.5 4t14.5 -6.5t2.5 -9zM365 -20q33 48 64 103t59.5 112t54.5 114.5t50 111.5q-81 -21 -156.5 -44t-141 -52t-118.5 -68t-90 -91q-45 -66 -54.5 -123.5t6 -100
t51 -66t81.5 -22.5t97 31t97 95zM1243 700q23 19 47.5 42t48 48.5t44 53.5t35.5 56q14 27 15.5 40.5t-6 15t-22 -8t-30.5 -28.5q-18 -22 -35.5 -49.5t-35 -57t-33 -59t-28.5 -53.5z" />
    <glyph glyph-name="I" unicode="I" horiz-adv-x="656" 
d="M573 913q-2 4 4.5 6.5t16 2t19 -5t14.5 -14.5q8 -22 1.5 -62.5t-23 -93t-41 -114t-53.5 -125.5t-60 -127t-60.5 -118.5t-55.5 -101t-44 -73.5q22 0 46.5 -1.5t49.5 -6.5q5 -2 3.5 -6t-6.5 -3q-55 9 -98 8q-46 -74 -91 -129.5t-85 -85.5q-38 -28 -60.5 -24t-28 26.5
t6 57.5t40.5 68.5t76.5 60.5t113.5 33q20 34 54 99.5t72.5 146.5t77 169.5t66.5 169t42 145.5t3 98zM254 76q-63 -7 -107.5 -32.5t-72 -57t-38 -63t-6 -51.5t23.5 -23t51 23q22 18 43 43t40 53t36 56t30 52z" />
    <glyph glyph-name="J" unicode="J" horiz-adv-x="1320" 
d="M713 643q2 -5 -1.5 -6.5t-4.5 2.5q-14 48 -1 101t43.5 100t72.5 81t87.5 44.5t88.5 -10t74 -82.5q26 -55 31 -117t-4 -124.5t-29 -123.5t-43 -113q72 -20 144 -46t153 -59q4 -2 2.5 -6t-6.5 -2q-81 34 -155 59t-143 45q-39 -83 -95.5 -167.5t-127 -158.5t-152 -131
t-169.5 -85q-88 -27 -161.5 -23.5t-130 30t-94.5 70.5t-53.5 98t-7 112.5t43.5 113.5t98.5 102t159.5 78q116 38 277.5 36.5t372.5 -54.5q19 46 37.5 102.5t29 115.5t10 116.5t-18.5 105.5q-24 65 -61.5 87.5t-78 14t-80 -41t-68 -76.5t-41 -94.5t0.5 -93.5zM979 399
q-106 28 -198.5 41t-172.5 14t-148 -9t-126 -29q-93 -30 -155.5 -76.5t-96.5 -100t-41.5 -110.5t7.5 -109t52 -95t92 -68t127 -28t157 24q89 31 165.5 89t139.5 131.5t113 157.5t85 168z" />
    <glyph glyph-name="K" unicode="K" horiz-adv-x="1052" 
d="M617 925q-9 -50 -28.5 -120t-47.5 -151t-63.5 -169t-74.5 -174q60 56 127.5 113.5t139 107.5t146.5 88t151 56t151 10.5t148 -47.5q4 -3 1.5 -6.5t-6.5 -1.5q-91 52 -186 49.5t-190 -40.5t-187.5 -101.5t-177.5 -134.5q6 -29 16.5 -62t26 -64.5t35 -59t43.5 -46.5
q38 -27 74.5 -22t69 27t61 54t49.5 59q2 3 6 1t0 -7q-12 -17 -30 -39t-40 -44t-47 -40t-51 -26.5t-53 -4.5t-52 27q-22 20 -40.5 50t-33.5 63.5t-25.5 66.5t-16.5 59q-61 -53 -118 -106q-25 -56 -57 -120t-69 -127t-78.5 -120.5t-86.5 -98.5q-18 -17 -35 -24.5t-29 -4.5
t-15.5 18.5t5.5 45.5q18 56 55 112t83 108.5t95.5 100.5t91.5 88q28 70 61 156.5t63 177.5t53.5 180.5t34.5 165.5q1 4 9.5 6.5t18 0.5t17 -9t6.5 -21zM346 247q-39 -37 -86 -83t-90.5 -97t-78.5 -104.5t-51 -104.5q-9 -28 -6.5 -41t11.5 -14.5t23 6.5t29 22q40 37 76.5 89
t68.5 108.5t58 113.5t46 105z" />
    <glyph glyph-name="L" unicode="L" horiz-adv-x="869" 
d="M588 968q-2 3 6 6.5t19 3.5t21 -5t13 -19q6 -38 -6 -90.5t-36.5 -115t-59 -132t-74.5 -139t-82.5 -137t-82.5 -127t-74.5 -107.5t-59.5 -79q50 23 116 37t137 26t141.5 25.5t131.5 35.5t106 55t65 84q2 5 6.5 3t2.5 -7q-21 -54 -68 -88t-109.5 -56t-135 -35.5t-145 -26
t-139.5 -27.5t-119 -40q-10 -11 -24 -27t-29.5 -32.5t-30.5 -31.5t-27 -24q-17 -14 -25.5 -16.5t-11 2.5t1.5 15.5t13 22.5q22 29 53.5 54.5t65.5 42.5q21 29 54 77.5t72 110.5t80.5 133t81 144.5t72.5 146t55 136.5t30 116t-5 85zM136 1q-26 -13 -54 -37.5t-46 -49.5
q-6 -8 -9.5 -14t-3.5 -8.5t5.5 0.5t17.5 14q23 20 47 46t43 49z" />
    <glyph glyph-name="M" unicode="M" horiz-adv-x="1125" 
d="M436 947q0 3 7 5.5t16 0.5t16.5 -10t7.5 -24q0 -64 -11 -131.5t-29 -135t-40.5 -132.5t-44.5 -123q34 43 72 92.5t78.5 98.5t82 94t80.5 80q26 22 46 28t32 -2t15 -27.5t-5 -46.5q-9 -31 -25 -70.5t-36.5 -84t-43.5 -92t-46 -93.5t-44 -88.5t-37 -76.5
q-12 -26 -6.5 -24.5t17.5 15t25 29.5t15 19q28 34 64.5 77.5t77 90.5t82.5 95.5t81 92t72.5 79.5t57.5 59q5 6 14 13.5t18.5 13.5t19.5 9t18 -1q11 -6 7.5 -25t-14 -40.5t-22.5 -41.5t-17 -28q-34 -52 -71 -110.5t-72 -119.5t-65.5 -123t-50.5 -120q-3 -7 -8.5 -28t-7.5 -42
t3 -35t24 -8q23 8 55.5 36t64.5 62.5t59.5 68.5t41.5 54q3 4 6.5 1.5t1.5 -6.5q-9 -14 -25 -34.5t-35.5 -44t-42 -47.5t-45 -44.5t-42.5 -35t-36 -19.5q-17 -5 -26 1t-13 17.5t-3.5 27.5t3 32t6 30l5.5 22q19 67 51.5 136.5t70 138t77 135.5t72.5 129q23 41 20.5 46.5
t-37.5 -26.5q-23 -22 -55.5 -57t-71 -78.5t-80.5 -91.5t-82.5 -96t-77 -92t-65.5 -78q-18 -23 -35.5 -42t-28.5 -26.5t-14 0t8 38.5q22 60 47 118.5t50 115.5t48.5 114t43.5 116q2 9 6.5 23t8 28t4.5 25.5t-3 17t-14.5 2.5t-29.5 -18q-41 -36 -85 -84.5t-87 -101
t-83.5 -105.5t-74.5 -98q-53 -124 -110 -236t-129 -214q-30 -43 -50.5 -59t-29 -9.5t-4.5 33t23 67.5q22 50 52.5 98.5t63.5 94.5t67.5 90.5t66.5 86.5q28 70 54.5 149t46.5 160.5t30.5 163t7.5 156.5zM287 286q-65 -85 -125 -165.5t-102 -170.5q-17 -38 -23.5 -62
t-1.5 -29.5t21 9t43 53.5q60 86 105 178.5t83 186.5z" />
    <glyph glyph-name="N" unicode="N" horiz-adv-x="826" 
d="M243 958q-2 4 4.5 6.5t15.5 1.5t18.5 -5.5t13.5 -13.5q8 -18 3 -51.5t-19 -74.5t-33 -85.5t-38.5 -84t-35.5 -71t-24 -45.5q-4 -9 -18 -36.5t-32 -63.5t-36 -77t-30 -77.5t-15 -63.5t10 -35q13 -7 35.5 4.5t53 37t67 62.5t76 80.5t82 92t83.5 96.5q66 78 125 144.5
t103 106.5q34 31 50.5 40t26.5 0q9 -9 3 -39t-22.5 -74t-40.5 -99t-51 -116q-5 -10 -21.5 -47t-38 -88t-44.5 -110.5t-40 -113.5t-24.5 -97t1.5 -62q7 -14 25.5 -10.5t44.5 19t57 40t63 53.5t62.5 59.5t56 56.5t43 45.5t23.5 26.5q2 2 5.5 0.5t0.5 -6.5q-8 -10 -37 -41.5
t-68.5 -71t-84 -80.5t-85.5 -69.5t-72.5 -38t-43.5 13.5q-10 19 -4 63.5t21.5 102.5t37 122t42.5 122t38 103t24 64q16 40 30.5 77.5t26 69.5t20 58.5t11.5 44.5q-7 -5 -13 -9.5t-16 -13.5q-45 -40 -103 -107.5t-124 -143.5q-63 -73 -127 -145.5t-119.5 -127.5t-98.5 -84.5
t-64 -17.5q-15 10 -15 38t9 65.5t24.5 79.5t31 79t28.5 65t17 38q27 64 53.5 127.5t45 119.5t27 100.5t-0.5 70.5z" />
    <glyph glyph-name="O" unicode="O" horiz-adv-x="884" 
d="M467 675q-36 -18 -73.5 -49t-74.5 -70.5t-71.5 -86t-64.5 -95.5q37 -19 81 -16t91 19.5t94.5 43.5t90.5 57t79.5 59.5t61.5 50.5q2 2 5 -1.5t0 -6.5q-26 -22 -63 -52t-80.5 -60t-92 -57.5t-96 -43.5t-93 -18t-83.5 18q-20 -33 -40 -74t-36.5 -85t-27 -90.5t-11.5 -90.5
q-1 -54 16 -91t48 -57t74.5 -22t97.5 13q63 19 122.5 63t113 102.5t99.5 127.5t80 139.5t55 138t26 122.5q5 80 -10.5 155.5t-55.5 132.5t-105.5 89.5t-160.5 26.5q-66 -4 -126 -37.5t-108.5 -85t-82 -114.5t-46 -125.5t0.5 -118.5t56 -93q29 51 62 99.5t68.5 89.5
t72.5 74.5t75 54.5q15 9 23.5 5t11.5 -12.5t2 -18t-5 -10.5zM153 385q-46 38 -60 95t-3 121t44.5 129t83.5 118t113 87.5t132 39.5q96 6 164 -27t109.5 -91.5t58 -135t10.5 -157.5q-5 -56 -26.5 -124.5t-56 -140.5t-80.5 -142t-100 -129.5t-114.5 -103.5t-124.5 -63
q-58 -17 -105 -13t-80.5 26t-51.5 61t-19 92q-1 44 8 91t24 93.5t34.5 90.5t39.5 83z" />
    <glyph glyph-name="P" unicode="P" horiz-adv-x="971" 
d="M42 -147q-1 -3 -5 -2t-4 5q7 59 22.5 149.5t38 194.5t51.5 213.5t62 208.5t69.5 178.5t74.5 123.5q12 13 24.5 14.5t22.5 -2.5t15 -11t1 -10q-38 -37 -73.5 -100.5t-69 -142t-63 -166t-54 -172t-44 -159.5t-31.5 -128q29 95 66 194.5t87 196.5q21 41 55.5 99.5
t78.5 120.5t96 122t107.5 103.5t112.5 65.5t113 8q49 -12 73.5 -48.5t32 -83t1.5 -95.5t-18 -88q-22 -69 -65 -140t-111 -139q45 -6 88 -23.5t81 -49.5q4 -4 1 -7.5t-7 -0.5q-37 35 -80.5 51.5t-90.5 22.5q-40 -38 -90.5 -74t-105.5 -66t-112 -52t-109 -31q-21 -3 -37 -1.5
t-22.5 9t-3.5 20t19 31.5q34 39 86 72t112 56t121.5 35.5t113.5 11.5q63 66 105 138t65 142q9 30 17 75t5.5 89.5t-18.5 81t-55 50.5q-50 17 -105.5 -4.5t-110.5 -66.5t-107.5 -105.5t-96.5 -123t-78 -118.5t-51 -91q-31 -61 -62 -134t-58 -149.5t-48 -152.5t-32 -145z
M664 358q-48 1 -107 -11.5t-117 -35.5t-109.5 -55t-84.5 -69q-15 -18 -17 -28.5t5 -15t20 -4.5t28 3q52 10 104.5 31t102 49.5t94.5 63.5t81 72z" />
    <glyph glyph-name="Q" unicode="Q" horiz-adv-x="941" 
d="M385 47q0 5 4 5t4 -5q0 -20 7.5 -35.5t19.5 -27t28 -20.5t33 -16q49 39 95 89.5t86 107.5t72.5 117t53.5 117q31 81 40 170t-9 169.5t-64.5 142.5t-124.5 88q-64 21 -126 16t-117.5 -30.5t-102 -68.5t-80 -96.5t-51.5 -115t-16 -124.5q2 -40 14 -78.5t43 -64.5
q28 52 61 100.5t68.5 90t73 74.5t75.5 54q16 9 24 5t11 -12.5t1.5 -17.5t-4.5 -10q-36 -18 -74 -49t-74.5 -70t-71 -85.5t-64.5 -96.5q38 -19 80 -16t80 16q5 2 6 -3t-2 -6q-42 -14 -86.5 -15.5t-82.5 16.5q-17 -27 -36 -65.5t-36 -83t-29.5 -91t-14.5 -90t8 -81t38 -62.5
q36 -31 80.5 -35.5t89.5 7.5t87 34.5t72 46.5q-37 17 -63 39.5t-26 65.5zM490 -57q18 -9 38.5 -17t40 -18.5t36 -24t27.5 -31.5q2 -5 -2 -7.5t-7 2.5q-9 18 -25.5 31t-36.5 23.5t-40.5 19t-38.5 16.5q-32 -26 -75.5 -50t-91 -36t-93.5 -7t-83 37q-30 26 -42 65t-12 84.5
t10.5 94t25.5 95t33.5 88t34.5 71.5q-32 26 -45.5 67.5t-14.5 83.5q-2 64 16.5 127t52.5 118t81.5 98.5t104.5 69.5t120.5 31t129.5 -17q81 -27 128.5 -90t66 -144.5t10 -172.5t-40.5 -172q-22 -57 -54.5 -118t-73 -119t-86.5 -109t-94 -89z" />
    <glyph glyph-name="R" unicode="R" horiz-adv-x="1024" 
d="M104 -149l-1 -7q0 -3 -4.5 -3t-4.5 4q15 101 26.5 200.5t28.5 200.5h-15t-30 1.5t-35.5 6.5t-30.5 14q-11 8 -8 17t17 11q12 2 26.5 -1t28.5 -9t27 -14t22 -15q13 66 27 134.5t34 134.5q6 20 17.5 53.5t26 68t29.5 64.5t28 45q6 6 15 9t17.5 2.5t13 -4t0.5 -9.5
q-31 -48 -57.5 -107t-49 -123.5t-41 -132.5t-33.5 -135q10 1 25.5 1.5t20.5 1.5q33 95 74 189t92 177.5t114.5 152.5t143.5 115q25 14 52.5 26t56.5 18.5t59 6.5t60 -10q58 -19 81 -62t21 -95t-22 -105t-47 -92q-55 -82 -156.5 -156t-256.5 -123q-64 -19 -131 -32t-136 -18
q-3 -11 -7 -23.5t-7 -23.5q39 -33 75.5 -70.5t78.5 -68.5q49 -38 101.5 -56t115.5 0t138.5 81t169.5 186q2 3 6.5 0.5t0.5 -7.5q-30 -39 -67 -83t-79 -83t-89 -69.5t-97 -42.5t-101.5 -1t-103.5 55q-41 33 -77.5 72.5t-74.5 77.5q-14 -43 -25.5 -80.5t-24 -77t-26.5 -84.5
t-32 -103zM650 884q-77 -46 -139.5 -113.5t-113 -149.5t-91 -174t-74.5 -186q75 7 139.5 20t120.5 33q144 49 239.5 126t144.5 160q19 32 35.5 77.5t20.5 92t-9 87.5t-54 62q-26 12 -55 13t-58 -5t-56 -18t-50 -25zM113 -91q23 74 45.5 146t45.5 147q-7 8 -16.5 16t-14.5 11
q-20 -89 -34.5 -171.5t-25.5 -148.5zM140 254q-18 12 -44.5 24t-47.5 9q-17 -3 -4 -14q8 -6 20 -9.5t25.5 -6t26.5 -3t24 -0.5zM208 211q5 13 9 27t4 13q-14 -2 -24 -2t-21 -1l-2 -10q8 -5 17 -13t17 -14z" />
    <glyph glyph-name="S" unicode="S" horiz-adv-x="756" 
d="M756 291q4 0 4 -5t-4 -5q-37 -5 -104 -30.5t-145 -65.5q34 -41 33.5 -79.5t-42.5 -77.5q-23 -21 -56.5 -41t-73 -38t-83 -33t-85 -27t-79 -19t-65.5 -9q-59 -3 -19 40q32 34 89 73.5t121 77.5t127 72t108 57q-35 33 -76 60t-83 54.5t-81.5 57t-72.5 66.5
q-42 48 -50.5 91.5t6.5 83t48.5 75t75.5 67.5q60 46 136 87t157 72.5t161.5 52t150.5 24.5q66 4 105 -5.5t57 -29t16.5 -47t-16.5 -59t-41.5 -65.5t-58.5 -67q-4 -3 -7 0.5t1 6.5q30 31 55 63.5t40 62t17 55t-14 44t-53 27t-100 5.5q-70 -5 -151.5 -25.5t-162.5 -52.5
t-155.5 -73.5t-131.5 -87.5q-39 -32 -61.5 -62t-30.5 -58.5t-3.5 -55.5t18.5 -52q25 -46 66 -84.5t87.5 -73.5t92.5 -70.5t79 -75.5q81 41 147.5 67.5t106.5 31.5zM488 175q-31 -16 -69.5 -36.5t-80.5 -44.5t-85 -49.5t-82.5 -51t-72.5 -51t-55 -47.5q-15 -17 -12 -22t24 -4
q28 1 65 8.5t79 19.5t85 27.5t82 33.5t72 37.5t54 39.5q33 35 34 67.5t-38 72.5z" />
    <glyph glyph-name="T" unicode="T" horiz-adv-x="648" 
d="M466 993q0 3 5.5 6t13 4t14.5 -2t11 -10q4 -8 4 -21.5t-1.5 -29.5t-4.5 -31t-4 -24q34 -1 87 -2.5t114 -1t125.5 5.5t120 18.5t97 36.5t58.5 60q2 4 5.5 3t1.5 -6q-17 -38 -59.5 -62t-98.5 -37.5t-121 -19t-127 -6.5t-116 1t-89 2q-28 -133 -76 -270t-101 -262
q12 7 24 12.5t24 8.5q4 2 5.5 -2t-3.5 -6q-14 -4 -27.5 -11t-27.5 -16q-27 -64 -56 -123t-56.5 -108.5t-54 -88.5t-49.5 -62q-31 -31 -48 -24.5t-11 54.5q6 42 30 89t57 92.5t71 85.5t72 66q54 135 101.5 280t74.5 286q-19 1 -50 1.5t-67.5 0t-75 -4t-72 -11t-59 -20
t-36.5 -31.5q8 -18 10.5 -32t2.5 -23q0 -22 -11.5 -20t-16.5 24q-4 16 -3.5 30t7.5 24q-5 11 -11.5 20.5t-14.5 20.5q-3 4 0.5 6.5t6.5 -1.5q6 -8 13.5 -19.5t11.5 -19.5q20 28 68 41.5t104.5 18.5t110 4.5t84.5 -1.5q6 32 9.5 59t3.5 48zM268 295q-31 -26 -66 -64
t-66.5 -81.5t-54 -88.5t-27.5 -84q-5 -38 6.5 -44t37.5 22q22 23 47.5 68t49 95.5t43 98.5t30.5 78z" />
    <glyph glyph-name="U" unicode="U" horiz-adv-x="981" 
d="M189 638q-4 -2 -6 1t1 5q23 13 44.5 24t41.5 22q38 72 72.5 128.5t68.5 94.5q22 26 45 39.5t39 12t19.5 -18.5t-13.5 -52q-20 -38 -68 -90.5t-137 -108.5q-27 -58 -61.5 -138.5t-66 -166.5t-54 -170t-25.5 -149q0 -25 3 -43.5t11.5 -29t23 -11.5t35.5 9q31 15 75 50.5
t95 84.5t107.5 108t112.5 121t110 124t101 117q41 48 80.5 94t81.5 94q4 4 10 5t12 -1.5t10.5 -6.5t5.5 -10q2 -10 -9 -34.5t-26 -53t-31 -55.5t-25 -41q-29 -49 -60.5 -105.5t-62 -115.5t-58.5 -118.5t-48 -114.5t-30.5 -103t-6.5 -84q3 -30 14.5 -48t29.5 -27t40.5 -10.5
t48.5 1.5q5 1 5.5 -3t-4.5 -5q-30 -3 -55 -1t-43.5 12t-30.5 29t-17 48q-8 43 5 109.5t40 143.5t63 159t74 157.5t73.5 138.5t61.5 102q-35 -40 -69.5 -80t-69.5 -82q-47 -54 -101 -115.5t-110 -123t-112 -120.5t-107.5 -108.5t-96 -85.5t-76.5 -53q-14 -8 -31 -12
t-32.5 -2.5t-29.5 9.5t-22 24q-14 30 -9 82.5t22 115.5t43.5 132t54.5 133.5t54 118.5t44 87q-17 -9 -35.5 -18.5t-38.5 -20.5zM302 709q82 55 125 103t63 86q16 33 12.5 45t-16.5 9.5t-31.5 -16t-33.5 -31.5q-36 -45 -65 -96t-54 -100z" />
    <glyph glyph-name="V" unicode="V" horiz-adv-x="911" 
d="M233 955q0 3 4 6t10.5 4.5t14.5 -0.5t15 -9q14 -14 17.5 -47.5t-0.5 -80t-14 -101.5t-23 -113t-28 -114.5t-28 -105.5q-17 -57 -36.5 -118.5t-38 -123t-33.5 -122.5t-22 -116q-3 -21 1 -26.5t11 -2t15.5 12t15.5 16.5q119 136 232 272.5t221 280.5q-14 31 -16 75
t5.5 93.5t24.5 99.5t40 93.5t52.5 75.5t61.5 45q38 14 61.5 -3t23.5 -53q0 -27 -13.5 -63t-35 -76t-48.5 -82.5t-54 -80.5t-51 -70.5t-39 -52.5q15 -29 37.5 -37.5t48.5 -3t53.5 20.5t53 34.5t46.5 39t34 32.5q3 3 6.5 0t-0.5 -7q-14 -14 -35.5 -34t-47.5 -39.5t-54 -35
t-55 -21t-51.5 3t-42.5 36.5q-108 -143 -219 -280t-232 -271q-14 -15 -26 -25t-20.5 -10.5t-13 10t-2.5 36.5q3 51 16.5 112t30 125.5t33.5 127t29 116.5q8 33 18 78.5t20 96.5t18.5 105t13 104.5t4 95.5t-8.5 77zM575 477q15 19 38 50.5t49.5 69t53 79t47.5 81.5t34.5 75.5
t13.5 60.5q0 28 -17 43.5t-46 3.5q-26 -10 -52 -41.5t-49 -74.5t-41 -93.5t-28.5 -98.5t-12 -89t9.5 -66z" />
    <glyph glyph-name="W" unicode="W" horiz-adv-x="1149" 
d="M314 937q-22 -33 -45.5 -92t-46.5 -134t-44 -160.5t-38 -172.5q-5 -23 -12.5 -62.5t-15 -86.5t-13.5 -98.5t-8.5 -98t-0.5 -85t12 -60.5q16 -38 48 -11q23 21 50 66t55 103t55 123t51 126.5t42.5 113.5t29.5 83q0 18 1.5 43t5 50.5t9.5 49t16 38.5q6 8 13 7t8 -12
q1 -10 -1.5 -31t-13.5 -55q-5 -39 -9 -91.5t-1 -107t15 -104.5t39 -83q26 -30 57.5 -38.5t64 -3t63.5 22t57 37.5q36 30 70.5 73t63.5 96t51.5 116.5t35.5 134.5q-16 11 -28.5 37t-19 57t-7.5 63t6 56q6 18 15.5 27t19 9t18 -8t12.5 -25q5 -22 5.5 -52t-1 -60.5t-4.5 -57
t-5 -41.5q25 -15 43 0.5t30 43t18.5 57.5t9.5 44q2 5 6 4t2 -7q-2 -11 -5.5 -28.5t-9.5 -37.5t-15 -39.5t-20.5 -32.5t-26.5 -18t-34 4q-12 -72 -34.5 -135.5t-52.5 -117.5t-65 -97.5t-71 -73.5q-27 -22 -60 -39t-67 -22.5t-66.5 2.5t-59.5 36q-35 37 -56.5 105.5
t-21.5 177.5q-11 -32 -29.5 -82t-41.5 -109t-49 -121t-53 -118t-53.5 -99.5t-50.5 -65.5q-39 -32 -63 12q-12 24 -16.5 63t-4.5 85t3.5 97t9 99t11.5 91t10 73q14 81 31 161.5t36 152t39 130.5t40 97q9 16 20.5 20.5t21 2.5t15.5 -7.5t5 -8.5zM980 644q2 13 4.5 39t4 55.5
t0.5 59t-5 49.5q-7 29 -22 24t-22 -27t-6.5 -52t6.5 -59t16 -53.5t24 -35.5z" />
    <glyph glyph-name="X" unicode="X" horiz-adv-x="1050" 
d="M550 954q-12 -39 -19.5 -85t-9.5 -96.5t0.5 -103.5t10.5 -106q197 163 426 263t481 141q6 1 7 -5t-6 -6q-252 -42 -480 -143t-426 -263q7 -39 18 -82t26.5 -84t37 -78.5t49.5 -65.5q45 -43 92 -54.5t93.5 0t91 40t85.5 64.5q3 2 5.5 -0.5t-0.5 -5.5q-43 -40 -89 -69
t-93.5 -39.5t-96 0.5t-96.5 50q-32 26 -57 60.5t-44 73.5t-33 79.5t-23 79.5q-89 -78 -163 -161t-132 -167t-100.5 -166t-69.5 -158q-2 -5 -6.5 -2.5t-3.5 4.5q27 77 70 160.5t102 169t134 170t166 163.5q-21 91 -24.5 190.5t9.5 193.5q4 24 15.5 34.5t23.5 12.5t21 -1.5
t8 -7.5z" />
    <glyph glyph-name="Y" unicode="Y" horiz-adv-x="824" 
d="M392 961q1 1 9 -2t13.5 -9.5t4.5 -17t-18 -24.5q-45 -38 -98 -90.5t-101.5 -112.5t-86.5 -123t-53 -121q-9 -34 -8.5 -65.5t13.5 -54.5t39 -34t69 -5q37 6 80 24.5t87.5 44t89.5 56.5t86 63t77 62.5t64 55.5q3 4 11.5 6.5t17 0t14.5 -10.5t5 -25q-2 -37 -21 -103.5
t-51 -148.5q53 2 101 -7.5t90 -29.5q5 -2 3 -6t-5 -2q-90 41 -192 35q-16 -45 -38.5 -99.5t-49 -112.5t-57.5 -117t-64 -112t-68 -97.5t-71 -73.5q-20 -16 -44 -28t-48 -12.5t-45 13t-34 48.5q-19 55 -10 116.5t35.5 121t64.5 111.5t77 89q66 62 147.5 104t167.5 56
q7 19 21.5 60t28 85t20 81t-2.5 47q-28 -25 -64.5 -55.5t-78 -62.5t-86.5 -63t-89.5 -56.5t-87.5 -43t-80 -23.5q-46 -8 -75 5t-43.5 38t-17 59t4.5 69q7 39 27 86t48 95.5t62 96.5t70 90t72 75.5t68 53.5zM591 313q-84 -14 -161 -55t-142 -102q-38 -35 -75 -86t-63 -109.5
t-35.5 -119t8.5 -113.5q11 -31 29.5 -43t40 -11.5t43.5 11.5t41 27q31 26 62.5 70t61.5 98t58 113.5t52 117.5t44.5 110.5t35.5 91.5z" />
    <glyph glyph-name="Z" unicode="Z" horiz-adv-x="1901" 
d="M308 951q5 2 6.5 -2.5t-3.5 -6.5q-34 -11 -48.5 -19.5t-13.5 -13.5q3 -10 28 -18.5t67 -15t98 -11.5t122.5 -8.5t140 -5t149.5 -0.5q121 0 239 5.5t215 14.5q46 29 95 54t103 37q19 4 35.5 1t25 -11t6.5 -19t-19 -21q-22 -13 -75.5 -25.5t-127.5 -20.5q-61 -42 -131 -99
t-144 -122.5t-148 -137.5t-143 -144q-67 -70 -126 -137t-103.5 -125.5t-72.5 -105t-34 -75.5q-5 -21 1 -31.5t18 -13.5t27.5 -0.5t30.5 7.5q66 19 141.5 39t154.5 35t160 22t158.5 1.5t149.5 -27t133 -64.5q5 -3 2 -6.5t-6 -0.5q-61 42 -132 63t-148 26t-157.5 -2.5
t-159 -22.5t-153 -34.5t-140.5 -38.5q-45 -12 -70.5 -3.5t-23.5 52.5q3 42 34 102.5t83 132t121.5 151t148.5 158.5q57 58 117.5 113.5t121 106.5t119.5 95.5t114 80.5q-96 -9 -209.5 -13.5t-230.5 -4.5q-116 0 -224 3.5t-193 11t-138.5 19.5t-58.5 29q-5 13 12.5 22.5
t55.5 23.5zM1364 875q66 8 115.5 19t69.5 24q13 9 13.5 16.5t-7 12.5t-20.5 6.5t-28 -2.5q-36 -11 -75 -32.5t-68 -43.5z" />
    <glyph glyph-name="bracketleft" unicode="[" horiz-adv-x="778" 
d="M707 649q4 0 4 -4q0 -2 -1 -4q-19 0 -37.5 -0.5t-38.5 -2.5q-81 -97 -147 -175.5t-128.5 -153t-127.5 -151.5t-143 -170h90v-9h-130q-1 0 18.5 24t52.5 64t76.5 92.5t91 109.5t96 115t91 109.5t76.5 92t53 62.5q20 0 32 0.5t21.5 0.5h21h29.5z" />
    <glyph glyph-name="backslash" unicode="\" 
 />
    <glyph glyph-name="bracketright" unicode="]" horiz-adv-x="694" 
d="M13 -10q-2 0 -2 3t2 3q18 0 36.5 1.5t37.5 1.5q54 65 101 121.5t90.5 108t84.5 100.5t83.5 99.5t88 104.5t97.5 116q-23 0 -44.5 1t-43.5 -1q-1 2 -1 6.5t1 4.5h40h23.5t24 -0.5t42.5 -0.5q1 0 -18.5 -24t-53 -64t-77 -92t-91 -109.5t-96 -115.5t-91.5 -109t-77 -92
t-53 -63h-104z" />
    <glyph glyph-name="asciicircum" unicode="^" 
 />
    <glyph glyph-name="underscore" unicode="_" 
 />
    <glyph glyph-name="grave" unicode="`" 
 />
    <glyph glyph-name="a" unicode="a" horiz-adv-x="300" 
d="M151 276q-2 -14 -4.5 -35.5t-2.5 -44.5t3 -44t11 -33q8 -13 20 -10t23 13q14 13 28.5 34.5t28 45.5t24.5 47.5t18 40.5q2 5 6.5 3.5t2.5 -5.5q-8 -18 -19.5 -42.5t-25 -49t-28.5 -46.5t-29 -35q-13 -12 -28 -16t-30 7q-14 9 -22 27.5t-11.5 40.5t-4 44t2.5 39
q-9 -9 -21.5 -20.5t-26 -23.5t-27.5 -23t-27 -19q-8 -5 -19.5 -11t-23.5 -8.5t-22.5 -0.5t-16.5 13q-10 21 -1 45.5t28 46t42 36.5t42 17q25 4 41 -10.5t27 -34.5l10.5 10.5t10.5 9.5q5 3 14 0t7 -8zM103 260q-9 18 -25 32t-35 7q-10 -4 -22 -16.5t-22.5 -29t-18.5 -34.5
t-11 -31q-3 -12 0.5 -16.5t9.5 -4.5t14 3.5t15 8.5q11 8 24 18t26 21t24.5 22t20.5 20z" />
    <glyph glyph-name="b" unicode="b" horiz-adv-x="370" 
d="M45 90q2 -3 -2 -5.5t-6 1.5q-26 41 -33.5 93t-5.5 109q4 72 24 145t47 136q23 56 56 113.5t75 108.5t92.5 91.5t108.5 62.5q46 18 90.5 19.5t82.5 -10.5t67 -37t44 -59t14.5 -76.5t-22.5 -90.5q-23 -48 -71.5 -100.5t-127 -104t-190 -101t-261.5 -91.5q-5 -42 -5.5 -80.5
t5.5 -70.5q3 18 11 40t20.5 42t27.5 37.5t32 26.5q20 12 37.5 11t30.5 -11.5t21 -28t9 -37.5q37 23 74.5 38.5t79.5 28.5q4 2 5.5 -2t-3.5 -6q-41 -14 -79.5 -29.5t-76.5 -39.5q1 -39 -13 -75t-38 -66t-56 -52.5t-67 -34.5q-24 -8 -38 -3t-2 35q10 23 31.5 49t48 51.5
t54 47.5t48.5 38q2 14 0 32.5t-8.5 33t-19.5 19.5t-33 -7q-18 -11 -34.5 -31t-29 -44t-19 -49t-3.5 -46q2 -8 4 -11.5t4 -9.5zM116 577q-32 -69 -54 -138.5t-34 -134.5q147 42 257 90t187.5 99t125 102.5t70.5 99.5q31 68 18.5 124t-53.5 90.5t-101.5 42.5t-123.5 -20
q-41 -21 -81.5 -56.5t-78 -82t-71 -102t-61.5 -114.5zM40 -5q25 12 48.5 34t43 49t33.5 56.5t19 57.5q-21 -15 -47 -37t-51.5 -46t-46.5 -49.5t-30 -47.5q-10 -24 1.5 -24.5t29.5 7.5z" />
    <glyph glyph-name="c" unicode="c" horiz-adv-x="197" 
d="M55 265q0 -5 -4.5 -5t-4.5 5q0 8 -2 15t-13 5q-11 -3 -20.5 -14t-17.5 -25t-12.5 -28.5t-4.5 -24.5q0 -14 11.5 -16.5t26 1.5t29 11t22.5 12q38 22 73.5 46t58.5 43q3 2 4.5 -1t-0.5 -5q-23 -18 -57.5 -42.5t-73.5 -47.5q-12 -8 -30 -17.5t-37 -14t-35.5 -1.5t-25.5 21
q-8 18 -2.5 39.5t19 39t33 28.5t40.5 9q23 -3 23 -33z" />
    <glyph glyph-name="d" unicode="d" horiz-adv-x="428" 
d="M63 274q-13 -11 -29 -28t-29.5 -39.5t-21.5 -50.5t-6 -59q0 -5 2 -10.5t7 -8.5t14 -3.5t24 5.5q26 12 54 38t53.5 57.5t47.5 63.5t36 56q-74 29 -134 90t-97 138t-45.5 161.5t20.5 161.5q22 58 66.5 102.5t99 66.5t113 17t109.5 -47q46 -37 64.5 -89.5t18.5 -110
t-13.5 -115.5t-31.5 -106q-25 -73 -61 -142t-79 -130q92 -28 183 -2q5 2 5.5 -2t-2.5 -5q-50 -14 -96 -13.5t-94 15.5l-40 -52.5t-52.5 -63t-59.5 -58.5t-61 -40q-20 -8 -40 -5t-34 25q-14 25 -15.5 56t6 61t23.5 54t37 35q9 4 20.5 5.5t21 -1.5t14.5 -9.5t2 -17.5zM219 302
q24 40 53 94.5t54.5 117t44.5 128t24.5 126.5t-7 114.5t-49.5 90.5q-46 42 -102 47t-109 -16.5t-96.5 -64.5t-63.5 -96q-28 -77 -20 -160t44 -157.5t94.5 -134t132.5 -89.5z" />
    <glyph glyph-name="e" unicode="e" horiz-adv-x="216" 
d="M-11 216q33 14 49 28.5t21 28.5q4 10 1 15.5t-9.5 6t-14 -2t-13.5 -8.5q-13 -13 -22 -31.5t-12 -36.5zM70 270q-5 -14 -24.5 -32t-57.5 -33q-2 -24 7.5 -39.5t38.5 -8.5q22 6 48 21t51.5 34t47.5 39.5t35 38.5q3 4 6.5 1t1.5 -6q-14 -19 -36.5 -40.5t-48.5 -41t-53 -34.5
t-50 -21q-25 -7 -50 1t-33 35q-5 16 -2 33t10.5 32.5t19.5 27.5t25 20q14 7 27.5 9t23 -1t14 -12t-0.5 -23z" />
    <glyph glyph-name="f" unicode="f" horiz-adv-x="387" 
d="M39 295q89 -4 183 15t184 61q82 38 149.5 93.5t114.5 130.5q32 53 40.5 101t-2 87.5t-37 68t-65 43t-86 13t-99.5 -22.5q-50 -21 -93.5 -58.5t-81.5 -86t-70 -105t-57.5 -115.5t-45.5 -116.5t-34 -108.5zM411 362q-91 -43 -187 -61.5t-187 -15.5q-2 -8 -5.5 -25t-5.5 -28
q17 -9 35 -23.5t29 -31.5q38 -3 80.5 2.5t82.5 20t75 37t59 53.5q2 4 6 1.5t0 -7.5q-23 -31 -58.5 -54t-76 -37.5t-83.5 -20t-81 -2.5q16 -23 24 -51.5t8.5 -58t-7 -57.5t-22.5 -49q-14 -18 -27 -24t-25 -2t-22.5 15.5t-18.5 26.5q-12 23 -18.5 52.5t-8 61t0 63t4.5 58.5
q-16 10 -16.5 22.5t22.5 12.5q10 58 29.5 123.5t47 131.5t63.5 129.5t80.5 117.5t96.5 95.5t113 63.5q55 20 105 20.5t90.5 -15.5t68.5 -46.5t38.5 -71.5t1.5 -91.5t-43 -106.5q-48 -76 -117.5 -132.5t-150.5 -95.5zM25 223q-1 -2 -2.5 -12.5t-2.5 -14.5q12 -5 29 -10.5
t31 -7.5q-9 13 -25 25t-30 20zM19 189q-4 -24 -6.5 -51t-3 -54.5t2 -54t9.5 -50.5q4 -14 11 -24.5t16 -15t19.5 -0.5t22.5 20q15 22 22 50t6 56.5t-9 56t-24 49.5q-19 2 -35.5 7t-30.5 11zM-14 232q-14 -1 -12 -7t9 -12q1 4 2 10t1 9z" />
    <glyph glyph-name="g" unicode="g" horiz-adv-x="287" 
d="M98 305q3 -2 1 -5.5t-6 -1.5q-20 13 -39.5 7.5t-34.5 -21t-23 -37.5t-5 -42q3 -23 18.5 -18.5t33 20.5t32 33.5t16.5 20.5q7 10 13.5 10.5t11.5 -4.5t8 -13t5 -16q3 -15 3.5 -32.5t0.5 -34.5q45 23 84.5 51.5t69.5 67.5q3 3 6 0.5t0 -6.5q-30 -40 -71 -69t-90 -55
q-6 -54 -25 -113.5t-48.5 -117t-67.5 -109.5t-83 -91q-23 -21 -54 -40.5t-65 -32.5t-68 -15t-63 12q-27 13 -41 35t-18.5 47.5t-0.5 53t13 51.5q19 52 59 91.5t90 70.5t104 54t102 43q41 15 76 29t70 31q3 21 5 44.5t-1 43.5q-2 11 -5.5 14.5t-10.5 -4.5q-10 -13 -30 -35.5
t-42 -38t-41.5 -16.5t-28.5 30q-5 25 7 51t33 44t48 23.5t52 -10.5zM111 149q-34 -17 -68.5 -30t-71.5 -28q-48 -20 -101.5 -43t-102.5 -53.5t-88.5 -70t-59.5 -91.5q-8 -23 -11 -48t0.5 -48t16 -43t36.5 -32q28 -15 59.5 -11t61.5 18t57.5 35t47.5 41q39 39 75 89.5
t65.5 104.5t51 108.5t32.5 101.5z" />
    <glyph glyph-name="h" unicode="h" horiz-adv-x="304" 
d="M89 235q-3 9 -6.5 11.5t-11.5 -6.5q-9 -12 -19 -35.5t-17.5 -50t-11.5 -51t-1 -38.5l2 -10t2 -8q2 -4 -3 -5.5t-8 5.5q-14 34 -18.5 77.5t-3.5 91.5q2 125 38 250.5t96 233.5q43 76 99 137t128 96q51 24 96.5 27.5t82 -10.5t62 -42t35.5 -66.5t2.5 -85t-35.5 -95.5
q-39 -67 -104.5 -128.5t-144.5 -111t-163 -85.5t-159 -52q-8 -42 -10.5 -86.5t-0.5 -89.5q3 14 7.5 32.5t11 38t14 37t16.5 30.5q12 16 24 15t20 -18q7 -14 15 -28.5t26 -18.5t41.5 7t45.5 27t40.5 33.5t27.5 26.5q3 2 5 -0.5t-1 -5.5q-15 -15 -35.5 -34t-44 -35t-47.5 -25
t-47 -5q-16 3 -26.5 16.5t-18.5 33.5zM27 292q74 18 156.5 53t159.5 83.5t142 108.5t104 127q27 49 34 93.5t-3 81.5t-34.5 63.5t-59 38.5t-77 7t-88.5 -30t-86 -67.5t-74 -96t-62.5 -114.5t-50.5 -122t-37.5 -119.5t-23.5 -106.5z" />
    <glyph glyph-name="i" unicode="i" horiz-adv-x="177" 
d="M29 287q-5 -7 -10.5 -19t-10 -25.5t-7 -26t-0.5 -21.5q3 -15 14.5 -16.5t22.5 3.5q16 7 35.5 20.5t39 29t36.5 31t28 27.5q3 3 6 -0.5t1 -5.5q-12 -13 -29.5 -29t-37 -31.5t-39.5 -29t-36 -20.5q-17 -8 -35 -5.5t-25 22.5q-4 10 -4 26t3.5 32.5t9.5 29.5t15 18q3 2 8 1.5
t9 -2t6 -4t0 -5.5zM52 348q0 -7 -3.5 -15.5t-8.5 -13.5q-5 -4 -12 -2.5t-9 10.5q-1 10 3.5 17t11.5 12q5 4 11 2t7 -10z" />
    <glyph glyph-name="j" unicode="j" horiz-adv-x="164" 
d="M-4 238q-62 -24 -113 -55.5t-91.5 -68t-71.5 -76t-54 -79.5q-32 -54 -49 -120t-6 -126q6 -31 23 -49t43 -15q36 4 71.5 35.5t66.5 74t55.5 87t38.5 75.5q35 78 57.5 161t29.5 156zM-3 248q0 6 0.5 17t0.5 23t-1 22t-3 14q-3 5 2 8q15 7 23 0.5t11 -19t3 -28v-24.5
q30 9 62.5 16.5t68.5 12.5q5 1 5.5 -3t-5.5 -5q-36 -5 -68 -13t-63 -19q-5 -80 -30 -167.5t-63 -168.5q-17 -35 -44.5 -80.5t-62 -87t-74 -72t-80.5 -34.5q-30 -2 -50 17.5t-27 54.5q-6 30 -4 63.5t10.5 66.5t21.5 64t29 58q23 41 55 81.5t73.5 77t93.5 69t116 56.5zM37 387
q0 -18 -12 -27q-5 -4 -12 -2.5t-9 9.5q-1 6 3.5 14.5t10.5 12.5t12 3t7 -10z" />
    <glyph glyph-name="k" unicode="k" horiz-adv-x="268" 
d="M14 94q0 -5 -2.5 -5t-3.5 3q-5 15 -7.5 32.5t-4.5 35.5q-6 64 3 141.5t31 159t57 160.5t81.5 145.5t103.5 115.5t124 69q78 23 131 2.5t77 -66.5t15.5 -109.5t-54.5 -126.5q-41 -56 -105.5 -112t-139 -104.5t-151 -86.5t-142.5 -57q-14 -76 -14 -135q10 41 33 73.5
t72 46.5q4 1 5 -3.5t-4 -5.5q-20 -5 -37 -16t-31 -30q8 -16 20.5 -36.5t28.5 -31.5q18 -12 39.5 -2.5t36.5 23.5t29 30.5t26 32.5t21.5 30t15.5 23q2 3 5 1.5t1 -5.5q-5 -9 -14.5 -23t-21.5 -30.5t-26.5 -33.5t-28.5 -31q-10 -9 -22 -18t-25.5 -14.5t-27 -5.5t-25.5 11
q-21 21 -37 71q-15 -23 -22.5 -55.5t-9.5 -60.5v-2zM113 580q-29 -69 -50 -139.5t-35 -139.5q64 19 140 56.5t148.5 85.5t136 103t104.5 110q29 41 42.5 82.5t12 78t-17 66.5t-42.5 47.5t-66 20.5t-87 -13q-51 -18 -95 -58.5t-79.5 -91t-63.5 -105.5t-48 -103z" />
    <glyph glyph-name="l" unicode="l" horiz-adv-x="340" 
d="M340 290q2 3 5 1.5t1 -5.5q-7 -14 -23 -42.5t-37 -63.5t-46.5 -71.5t-51.5 -65.5q-24 -26 -47.5 -43t-45 -18.5t-41.5 15t-37 57.5q-19 46 -23 101.5t1.5 112.5t18.5 112.5t28 101.5q26 78 64 154.5t86.5 141t106.5 112t123 67.5q37 12 73.5 13t67 -11.5t50.5 -40.5
t24 -74q5 -62 -21 -121.5t-68 -113.5t-92.5 -99.5t-95.5 -77.5q-78 -54 -161.5 -92t-161.5 -49q-13 -66 -14.5 -125.5t12.5 -104.5q12 -40 28.5 -55.5t36 -13.5t41 17.5t42.5 38.5q25 29 50.5 65t46.5 71t37 63.5t23 42.5zM40 300q74 11 157 49.5t159 91.5q44 31 93 75
t90 96.5t66.5 111t21.5 118.5q-3 43 -21 69t-46 38t-62 10t-70 -15q-51 -19 -96.5 -60t-85.5 -95t-74 -118t-60 -129t-44.5 -127.5t-27.5 -114.5z" />
    <glyph glyph-name="m" unicode="m" horiz-adv-x="497" 
d="M15 171q-2 -8 -14 -2.5t-14 22.5q-4 26 3 51t8 50q0 3 3 4.5t6 1.5q11 0 16 -9.5t6 -22.5t-0.5 -26t-2.5 -20q8 20 21 45t28 50t32 47t33 37q7 7 18 13.5t22.5 8t21 -2t15.5 -15.5q7 -15 5.5 -42.5t-7.5 -59t-15 -62.5t-16 -55q12 21 27 40.5t35 33.5q6 4 13 7.5t14 4.5
t13.5 -1.5t9.5 -10.5q5 -13 2.5 -27t-1.5 -23.5t11 -11.5t40 9q20 7 43.5 18.5t44.5 23.5t38 23.5t23 19.5q2 2 5 0.5t1 -4.5q-8 -9 -24.5 -21t-38.5 -24.5t-45.5 -24t-44.5 -19.5q-9 -3 -19.5 -7t-21 -5.5t-19 1t-12.5 10.5q-5 11 -3 26.5t0 26.5t-11 8t-17 -8
q-12 -8 -24.5 -22.5t-23.5 -31.5q-14 -22 -25.5 -42.5t-18.5 -37.5q-2 -5 -6 -4t-2 6q10 27 20 61.5t18 69.5q2 13 5 32t4.5 40t1 40t-6.5 32q-8 17 -20.5 13t-23.5 -13q-18 -15 -38 -43t-38 -60t-32.5 -64t-21.5 -54z" />
    <glyph glyph-name="n" unicode="n" horiz-adv-x="325" 
d="M-1 297q17 6 24 -0.5t4 -20.5q-9 -38 -17.5 -72t-17.5 -65q10 21 24.5 42.5t28.5 39.5q18 22 33.5 28t26.5 -6q4 -4 7.5 -11.5t7 -15.5t7 -15.5t8.5 -12.5q5 -6 17.5 -3t26.5 9t26.5 13t18.5 11q27 17 52 35.5t49 36.5q3 2 5.5 -0.5t-0.5 -5.5q-19 -15 -46 -35t-56 -39
q-14 -9 -28.5 -17t-29 -14t-27 -8t-22.5 2q-11 5 -16.5 15.5t-9.5 24.5t-8.5 19t-10.5 4t-12 -7l-13 -13q-27 -33 -48.5 -71t-32.5 -74q-1 -10 -7.5 -10t-6.5 8q3 22 8 52t11.5 61.5t12.5 61.5t11 53z" />
    <glyph glyph-name="o" unicode="o" horiz-adv-x="170" 
d="M56 298q4 -2 3.5 -5.5t-4.5 -2.5q-3 1 -7 1.5t-8 -0.5q13 -14 34 -24q0 9 -1 20t-4 21t-8.5 18.5t-14.5 12.5q-10 3 -15 0t-6 -9.5t1 -14t6 -13.5q11 1 24 -4zM-12 282q8 8 15.5 12.5t20.5 6.5q-6 9 -7.5 19t1.5 17t11 10t20 -1q11 -5 18 -14.5t10.5 -21t4.5 -24t1 -22.5
q26 -9 48.5 -1.5t38.5 27.5q4 4 6.5 1t0.5 -6q-19 -22 -42 -29.5t-53 0.5q-2 -19 -7.5 -37.5t-16.5 -34.5t-28.5 -24t-37.5 3q-15 8 -21 23.5t-6 33t6 34.5t17 28zM74 259q-26 10 -42 29q-14 -7 -22 -20.5t-11.5 -29t-2 -31.5t8.5 -28q5 -8 11 -9t12.5 1t12.5 7t10 11
q11 14 16 33t7 37z" />
    <glyph glyph-name="p" unicode="p" horiz-adv-x="290" 
d="M-4 410q0 10 12.5 10t19.5 -10q7 -11 10 -31.5t4 -43.5t0 -45.5t-2 -36.5q24 32 46 46.5t39 18.5q27 6 50.5 -5t31.5 -39q35 10 83 16q5 1 5.5 -3t-4.5 -5q-24 -3 -43.5 -7.5t-39.5 -9.5q3 -23 -7 -46.5t-27.5 -43t-40 -34.5t-43.5 -21t-34 -2.5t-17.5 13t-1.5 23
t14 27.5q15 21 46.5 44t80.5 40q-1 23 -14 35.5t-39 7.5q-17 -4 -39 -19.5t-48 -50.5q-3 -51 -10 -110.5t-16.5 -122.5t-22 -128t-26.5 -127q-13 -51 -27 -99t-29 -89.5t-30.5 -75.5t-30.5 -57q-7 -11 -14.5 -18.5t-13.5 -9t-10.5 5.5t-6.5 27q-3 25 -1.5 54.5t4.5 60.5
t8 60.5t10 54.5q11 59 27 125t37.5 133t48 131.5t57.5 121.5q5 68 6 127.5t-2 107.5zM-9 156q-29 -56 -53.5 -118.5t-44.5 -127t-35.5 -127.5t-26.5 -119q-5 -24 -9.5 -54t-8.5 -60.5t-5.5 -60.5t1.5 -54q1 -15 4.5 -19.5t7 -3t8 8t8.5 14.5q15 33 28.5 75t25 86.5t21 87
t17.5 76.5q21 98 36 197.5t26 198.5zM178 257q-47 -19 -76.5 -40t-44.5 -42q-7 -10 -10 -20.5t0 -18t12.5 -10t27.5 5.5q16 7 32.5 20t29 29.5t21 36t8.5 39.5z" />
    <glyph glyph-name="q" unicode="q" horiz-adv-x="377" 
d="M146 295q5 -3 2 -6.5t-5 -1.5q-20 11 -44 16t-47 -5q-16 -6 -28 -21t-16.5 -30t0 -27.5t22.5 -14.5q16 -1 35.5 6.5t38 19t35 24t27.5 21.5q14 12 19 5.5t-4 -23.5q-18 -35 -44 -87.5t-53 -116.5q83 46 158 106t135 130q2 2 4.5 0t0.5 -5q-62 -75 -139 -135.5
t-162 -106.5q-2 -5 -3.5 -10.5t-3.5 -8.5q44 -38 83.5 -85.5t63 -100.5t27 -110t-24.5 -114q-20 -35 -46 -56.5t-55.5 -27.5t-60 5t-58.5 41q-43 46 -46 115.5t17 149.5q14 48 32 94t36 90q-13 -6 -33.5 -12t-34.5 2q-16 9 -12.5 25t19.5 24q18 8 37 -1.5t34 -20.5
q29 63 61.5 121t59.5 109q-32 -27 -63.5 -48t-73.5 -30q-44 -8 -59.5 8t-11 40t26.5 46.5t53 27.5q26 4 53.5 -2t47.5 -19zM72 15q-18 -43 -37.5 -101t-31.5 -118t-10.5 -115t25.5 -92q23 -35 51 -45.5t55.5 -3.5t51.5 29t40 52q27 57 22.5 113t-28 107t-61 95.5t-77.5 78.5
zM46 35q-12 9 -28.5 19t-32.5 3q-11 -6 -13.5 -17t9.5 -19q6 -3 14.5 -2.5t17.5 3t17.5 6.5t15.5 7z" />
    <glyph glyph-name="r" unicode="r" horiz-adv-x="233" 
d="M5 297q17 30 24.5 48.5t5.5 29.5q-3 11 -11 16t-17.5 4.5t-18 -7t-11.5 -18.5q-3 -11 2 -30.5t26 -42.5zM44 376q2 -12 -6 -31.5t-27 -53.5q11 -14 12.5 -28.5t-1.5 -29.5q-5 -18 -13 -33.5t-15 -31t-12 -31t-3 -33.5q1 -12 7 -16t13.5 -3.5t15.5 4t15 7.5q25 14 54 39.5
t57.5 54t52.5 55.5t39 45q2 3 5.5 1t1.5 -5q-15 -19 -39.5 -47t-53 -56.5t-58.5 -54.5t-55 -40q-11 -6 -23.5 -11t-25.5 -5t-23.5 6.5t-16.5 22.5q-5 18 0 37.5t14.5 38t20.5 36.5t19 33q5 11 5.5 23.5t-7.5 21.5q-22 26 -27 47.5t-1 35.5q4 15 15.5 22.5t23.5 8t22.5 -6.5
t13.5 -22z" />
    <glyph glyph-name="s" unicode="s" horiz-adv-x="312" 
d="M88 279q-1 -9 -8 -8.5t-7 8.5q0 11 -5.5 15.5t-13 4.5t-15.5 -3.5t-12 -9.5q-14 -20 -8.5 -43t20 -45.5t33.5 -43.5t31 -36q54 42 109 83t100 89q5 5 10 1.5t1 -8.5q-45 -49 -102 -92.5t-111 -85.5q11 -14 20 -30t12.5 -32.5t2 -34.5t-11.5 -36q-14 -24 -37 -35t-45.5 -9
t-39 17t-17.5 42q0 15 6.5 30t17 28.5t23.5 24.5t27 19q-11 15 -27 34t-30 40t-23 43t-6 43q3 28 20 45.5t36 22t34.5 -4.5t15.5 -33zM112 -13q2 23 -7 47t-26 44q-10 -7 -22 -16.5t-22.5 -21t-17.5 -25t-7 -28.5q0 -24 15.5 -34.5t34 -9.5t34.5 12.5t18 31.5z" />
    <glyph glyph-name="t" unicode="t" horiz-adv-x="332" 
d="M332 290q2 4 5.5 2.5t1.5 -6.5q-7 -14 -23 -42.5t-37.5 -63.5t-47 -71.5t-50.5 -65.5q-33 -37 -60 -48.5t-48 -5t-36 29t-25 53.5t-14.5 67.5t-4.5 71.5q1 69 13.5 147.5t37.5 159.5q-10 0 -29 -1t-41.5 -1t-46 2t-43 7t-32 14t-12.5 24q0 5 4 5t4 -5q1 -13 13.5 -20.5
t31.5 -11.5t42 -5.5t45 -1.5t40 1t27 2q16 48 36 93.5t43 90.5q9 16 18.5 21.5t17 5t12 -4t2.5 -6.5q-26 -46 -48.5 -95.5t-40.5 -100.5q121 11 244.5 27t245.5 19q4 0 4.5 -3.5t-4.5 -4.5q-61 -1 -123 -6.5t-124 -13l-124 -15t-123 -13.5q-26 -75 -44.5 -155.5
t-22.5 -158.5q-1 -31 1.5 -64.5t9.5 -63t18.5 -51.5t29.5 -29.5t42.5 3t56.5 46.5q26 30 51.5 66t46.5 70.5t37 63t23 42.5z" />
    <glyph glyph-name="u" unicode="u" horiz-adv-x="239" 
d="M6 297q18 5 29.5 -1t0.5 -24q-9 -14 -19.5 -35.5t-20 -45t-16.5 -46t-9 -38.5q-2 -20 6 -17.5t17 11.5q38 38 65 83t53 84q12 8 19.5 2t1.5 -21q-2 -7 -8.5 -23.5t-9.5 -27.5q-2 -9 0.5 -11t7.5 -1t11 4.5t10 6.5q11 8 24.5 19.5t26.5 24.5t24.5 26t19.5 23q2 3 4.5 1
t0.5 -5q-16 -21 -44 -49t-53 -47q-18 -14 -33 -13t-15 21q1 10 4 21t6 27q-27 -45 -54.5 -85.5t-55.5 -68.5q-15 -14 -28 -15t-18 23q-2 12 2.5 43t12.5 63.5t18.5 59t19.5 31.5z" />
    <glyph glyph-name="v" unicode="v" horiz-adv-x="244" 
d="M30 287q-4 -11 -8 -26.5t-7.5 -32t-5 -32t-0.5 -27.5q2 -11 5.5 -18t12.5 1q12 10 28 30.5t31.5 44t29 46t21.5 36.5q-5 10 -4.5 21t5.5 19q8 14 17.5 12t7.5 -15q-2 -9 -8 -20.5t-9 -17.5q6 -11 18 -17t26.5 -8.5t28.5 -0.5t25 8q3 2 4.5 -1.5t-2.5 -5.5q-12 -6 -27 -8
t-29.5 0.5t-27.5 8.5t-20 17q-9 -15 -22.5 -37t-28.5 -44.5t-30.5 -42.5t-28.5 -31q-12 -10 -22.5 -4t-16.5 25q-3 10 -5 27t-2.5 35t1.5 34t8 24q4 6 10.5 8t12.5 1.5t9.5 -3.5t2.5 -6zM142 317q3 5 7 13.5t6 14.5q2 7 -2 7t-9 -9q-2 -5 -3 -13t1 -13z" />
    <glyph glyph-name="w" unicode="w" horiz-adv-x="317" 
d="M34 295q-9 -14 -20.5 -41.5t-21 -58t-16.5 -59.5t-8 -46q0 -35 28 -15q21 15 38.5 41.5t33 56t30.5 59t31 51.5q6 8 14.5 9t13.5 -11q6 -16 7.5 -34.5t8.5 -32.5q5 -11 12 -8.5t14 12.5q4 6 8.5 16t9 20.5t9.5 20t10 14.5q9 8 17 3t16.5 -11t19.5 -6.5t28 15.5q3 3 6 0
t0 -6q-19 -17 -32 -17t-22.5 5t-15.5 10.5t-12 0.5q-3 -4 -8 -13t-10 -20t-9.5 -21.5t-8.5 -16.5q-6 -10 -18 -16t-23 4q-6 6 -9 15.5t-4.5 20.5t-2 21.5t-1.5 18.5q-1 7 -4 5.5t-6 -5.5q-17 -21 -31.5 -49.5t-30 -57.5t-33 -55.5t-39.5 -44.5q-22 -17 -34.5 -9.5
t-14.5 30.5q-2 19 0.5 44t8 51t13 50t14.5 41q7 16 15 22t15 6t11 -3.5t3 -5.5z" />
    <glyph glyph-name="x" unicode="x" horiz-adv-x="228" 
d="M-53 118q-5 -2 -6.5 1.5t1.5 5.5q29 15 52.5 32t42.5 38q-6 6 -14.5 18t-15.5 25t-11.5 25.5t-1.5 21.5q3 8 9 11t12 2.5t11 -3t6 -5.5q4 -21 11 -38t18 -31q8 9 17.5 21t20 24t20.5 22t19 15q14 9 20 3t12.5 -14t18.5 -11.5t39 9.5q5 2 6 -1t-2 -5q-29 -13 -43 -10.5
t-21 9.5t-11 13t-13 1t-19.5 -16t-21 -23t-20 -24.5t-16.5 -20.5q13 -18 30 -32.5t35 -29.5q5 -4 4 -7t-5 -3q-25 3 -47.5 17t-40.5 31q-36 -40 -96 -71z" />
    <glyph glyph-name="y" unicode="y" horiz-adv-x="293" 
d="M50 350q-6 -6 -13 -18.5t-12.5 -27t-9 -27.5t-2.5 -20q1 -10 9.5 -8.5t19.5 8t21.5 14.5t15.5 11q8 6 19 13.5t23 11.5t22.5 0.5t16.5 -20.5q2 -5 3 -12t1 -14q33 10 64.5 17t64.5 12q5 1 6 -2.5t-3 -5.5q-35 -5 -67.5 -13t-64.5 -18q-4 -69 -21.5 -138t-42.5 -132
q-17 -44 -41 -93t-55 -94.5t-69 -83t-81 -57.5q-42 -21 -75.5 -8t-45.5 66q-10 42 -2.5 89t25 93t42.5 87t51 73q48 60 117.5 110.5t162.5 84.5q2 22 0.5 32.5t-7 12t-15.5 -4t-25 -15.5q-7 -5 -19.5 -14t-26 -15.5t-25 -5.5t-14.5 16q-2 10 -0.5 25.5t5.5 31.5t10 29.5
t14 18.5t18 0.5t6 -9.5zM129 238q-91 -33 -157.5 -83t-113.5 -107q-26 -31 -50.5 -72t-41.5 -86t-24.5 -90.5t1.5 -86.5q9 -44 36.5 -58t66.5 6q38 21 73 61.5t64.5 88.5t52 97.5t36.5 88.5q19 57 35 118.5t22 122.5z" />
    <glyph glyph-name="z" unicode="z" horiz-adv-x="295" 
d="M26 298q8 -6 7 -22t-5.5 -34.5t-10.5 -35t-8 -23.5q14 9 28 16.5t28 9.5q57 7 66 -52q46 25 87.5 56.5t76.5 76.5q3 3 6.5 0.5t1.5 -5.5q-37 -46 -80 -79t-91 -58q4 -36 -4 -77.5t-24 -83.5t-38 -82.5t-44 -74.5q-23 -36 -56 -75t-73.5 -69t-86.5 -44t-94 1
q-31 10 -51 29t-30 44t-10.5 53t8.5 56q24 71 77 118t120 81.5t139 61t134 56.5q0 9 -1 19t-5 19t-10.5 15t-17.5 5q-12 -2 -26 -8.5t-24 -14.5q-5 -5 -11 -5.5t-8 4.5q-4 9 -2.5 25t4 33t3.5 32.5t-3 24.5q-2 3 0.5 5.5t7.5 4t10.5 1.5t9.5 -4zM-2 -159q22 37 40.5 76
t32 77t21 73.5t7.5 65.5q-39 -19 -84 -36.5t-91 -37t-90.5 -41.5t-82.5 -50t-67 -64t-45 -82q-8 -26 -7.5 -52.5t9.5 -49.5t27.5 -40.5t45.5 -26.5q47 -14 89.5 1t78.5 45.5t65.5 69.5t50.5 72z" />
    <glyph glyph-name="braceleft" unicode="{" horiz-adv-x="638" 
 />
    <glyph glyph-name="bar" unicode="|" horiz-adv-x="91" 
 />
    <glyph glyph-name="braceright" unicode="}" horiz-adv-x="646" 
 />
    <glyph glyph-name="asciitilde" unicode="~" 
 />
    <glyph glyph-name="exclamdown" unicode="&#xa1;" horiz-adv-x="519" 
d="M476 453q-85 -96 -167 -189t-168 -187q-6 -7 -10.5 -2.5t0.5 11.5q36 44 76 95.5t80.5 102t79 97.5t71.5 82q9 9 17.5 10t14.5 -2t8 -8.5t-2 -9.5zM99 35q7 -7 2.5 -20t-15 -24.5t-23 -17.5t-19.5 2q-8 9 -3 21.5t15.5 23t23 16t19.5 -0.5z" />
    <glyph glyph-name="cent" unicode="&#xa2;" horiz-adv-x="308" 
 />
    <glyph glyph-name="sterling" unicode="&#xa3;" horiz-adv-x="1335" 
 />
    <glyph glyph-name="currency" unicode="&#xa4;" 
 />
    <glyph glyph-name="yen" unicode="&#xa5;" horiz-adv-x="1252" 
 />
    <glyph glyph-name="brokenbar" unicode="&#xa6;" horiz-adv-x="130" 
 />
    <glyph glyph-name="section" unicode="&#xa7;" horiz-adv-x="619" 
 />
    <glyph glyph-name="dieresis" unicode="&#xa8;" 
 />
    <glyph glyph-name="copyright" unicode="&#xa9;" 
 />
    <glyph glyph-name="ordfeminine" unicode="&#xaa;" horiz-adv-x="455" 
d="M306 276q-2 -14 -4.5 -35.5t-2.5 -44.5t3 -44t11 -33q8 -13 20 -10t23 13q14 13 28.5 34.5t28 45.5t24.5 47.5t18 40.5q2 5 6.5 3.5t2.5 -5.5q-8 -18 -19.5 -42.5t-25 -49t-28.5 -46.5t-29 -35q-13 -12 -28 -16t-30 7q-14 9 -22 27.5t-11.5 40.5t-4 44t2.5 39
q-9 -9 -21.5 -20.5t-26 -23.5t-27.5 -23t-27 -19q-8 -5 -19.5 -11t-23.5 -8.5t-22.5 -0.5t-16.5 13q-10 21 -1 45.5t28 46t42 36.5t42 17q25 4 41 -10.5t27 -34.5l10.5 10.5t10.5 9.5q5 3 14 0t7 -8zM258 260q-9 18 -25 32t-35 7q-10 -4 -22 -16.5t-22.5 -29t-18.5 -34.5
t-11 -31q-3 -12 0.5 -16.5t9.5 -4.5t14 3.5t15 8.5q11 8 24 18t26 21t24.5 22t20.5 20z" />
    <glyph glyph-name="guillemotleft" unicode="&#xab;" 
 />
    <glyph glyph-name="logicalnot" unicode="&#xac;" 
 />
    <glyph glyph-name="registered" unicode="&#xae;" 
 />
    <glyph glyph-name="degree" unicode="&#xb0;" 
 />
    <glyph glyph-name="plusminus" unicode="&#xb1;" 
 />
    <glyph glyph-name="twosuperior" unicode="&#xb2;" 
 />
    <glyph glyph-name="threesuperior" unicode="&#xb3;" 
 />
    <glyph glyph-name="acute" unicode="&#xb4;" 
 />
    <glyph glyph-name="mu" unicode="&#xb5;" horiz-adv-x="590" 
 />
    <glyph glyph-name="paragraph" unicode="&#xb6;" horiz-adv-x="457" 
 />
    <glyph glyph-name="periodcentered" unicode="&#xb7;" 
 />
    <glyph glyph-name="cedilla" unicode="&#xb8;" 
 />
    <glyph glyph-name="onesuperior" unicode="&#xb9;" 
 />
    <glyph glyph-name="ordmasculine" unicode="&#xba;" horiz-adv-x="263" 
d="M149 298q4 -2 3.5 -5.5t-4.5 -2.5q-3 1 -7 1.5t-8 -0.5q13 -14 34 -24q0 9 -1 20t-4 21t-8.5 18.5t-14.5 12.5q-10 3 -15 0t-6 -9.5t1 -14t6 -13.5q11 1 24 -4zM81 282q8 8 15.5 12.5t20.5 6.5q-6 9 -7.5 19t1.5 17t11 10t20 -1q11 -5 18 -14.5t10.5 -21t4.5 -24t1 -22.5
q26 -9 48.5 -1.5t38.5 27.5q4 4 6.5 1t0.5 -6q-19 -22 -42 -29.5t-53 0.5q-2 -19 -7.5 -37.5t-16.5 -34.5t-28.5 -24t-37.5 3q-15 8 -21 23.5t-6 33t6 34.5t17 28zM167 259q-26 10 -42 29q-14 -7 -22 -20.5t-11.5 -29t-2 -31.5t8.5 -28q5 -8 11 -9t12.5 1t12.5 7t10 11
q11 14 16 33t7 37z" />
    <glyph glyph-name="guillemotright" unicode="&#xbb;" 
 />
    <glyph glyph-name="onequarter" unicode="&#xbc;" 
 />
    <glyph glyph-name="onehalf" unicode="&#xbd;" 
 />
    <glyph glyph-name="threequarters" unicode="&#xbe;" 
 />
    <glyph glyph-name="questiondown" unicode="&#xbf;" horiz-adv-x="475" 
 />
    <glyph glyph-name="Agrave" unicode="&#xc0;" horiz-adv-x="1608" 
d="M1324 584q3 5 6.5 2t1.5 -6q-39 -54 -88.5 -91.5t-106.5 -63t-121 -40t-132 -23.5q-4 -24 -10.5 -66t-11 -91.5t-5 -101t7.5 -95t27 -74t53 -36.5q4 -1 3 -5t-6 -3q-35 7 -56.5 37t-33 73t-14.5 94.5t-1.5 101.5t6 93t7.5 70q-67 -7 -132.5 -11t-131.5 -6
q-46 -84 -93.5 -162t-99.5 -146q-23 -30 -57.5 -68.5t-75 -69.5t-84.5 -46.5t-85 1.5q-27 12 -44 33t-26 47t-10.5 54t1.5 54q7 48 28 89t52 74t70.5 57.5t82.5 39.5q74 26 155.5 35t178.5 14q42 75 82.5 151t85.5 151q30 52 60.5 97.5t61.5 82.5t63 62.5t65 37.5q8 2 8 -5
v-10q-11 -57 -27 -122t-28 -122q-17 -75 -33 -149.5t-30 -150.5q65 9 127.5 24t119 39.5t105 61t85.5 88.5zM852 368q17 134 47 269.5t65 266.5q-55 -32 -107 -101.5t-104 -158.5q-44 -74 -83.5 -148t-79.5 -147q65 4 130.5 8t131.5 11zM575 340q-91 -5 -174.5 -14.5
t-153.5 -35.5q-44 -16 -82.5 -40.5t-68 -57.5t-48 -74.5t-22.5 -91.5q0 -23 4.5 -47t14 -46t24.5 -39.5t36 -27.5q24 -11 50.5 -7.5t53.5 17t53 34t49 43.5t42 45.5t33 39.5q52 68 98 144.5t91 157.5z" />
    <glyph glyph-name="Aacute" unicode="&#xc1;" horiz-adv-x="1608" 
d="M1324 584q3 5 6.5 2t1.5 -6q-39 -54 -88.5 -91.5t-106.5 -63t-121 -40t-132 -23.5q-4 -24 -10.5 -66t-11 -91.5t-5 -101t7.5 -95t27 -74t53 -36.5q4 -1 3 -5t-6 -3q-35 7 -56.5 37t-33 73t-14.5 94.5t-1.5 101.5t6 93t7.5 70q-67 -7 -132.5 -11t-131.5 -6
q-46 -84 -93.5 -162t-99.5 -146q-23 -30 -57.5 -68.5t-75 -69.5t-84.5 -46.5t-85 1.5q-27 12 -44 33t-26 47t-10.5 54t1.5 54q7 48 28 89t52 74t70.5 57.5t82.5 39.5q74 26 155.5 35t178.5 14q42 75 82.5 151t85.5 151q30 52 60.5 97.5t61.5 82.5t63 62.5t65 37.5q8 2 8 -5
v-10q-11 -57 -27 -122t-28 -122q-17 -75 -33 -149.5t-30 -150.5q65 9 127.5 24t119 39.5t105 61t85.5 88.5zM852 368q17 134 47 269.5t65 266.5q-55 -32 -107 -101.5t-104 -158.5q-44 -74 -83.5 -148t-79.5 -147q65 4 130.5 8t131.5 11zM575 340q-91 -5 -174.5 -14.5
t-153.5 -35.5q-44 -16 -82.5 -40.5t-68 -57.5t-48 -74.5t-22.5 -91.5q0 -23 4.5 -47t14 -46t24.5 -39.5t36 -27.5q24 -11 50.5 -7.5t53.5 17t53 34t49 43.5t42 45.5t33 39.5q52 68 98 144.5t91 157.5z" />
    <glyph glyph-name="Acircumflex" unicode="&#xc2;" horiz-adv-x="1608" 
d="M1324 584q3 5 6.5 2t1.5 -6q-39 -54 -88.5 -91.5t-106.5 -63t-121 -40t-132 -23.5q-4 -24 -10.5 -66t-11 -91.5t-5 -101t7.5 -95t27 -74t53 -36.5q4 -1 3 -5t-6 -3q-35 7 -56.5 37t-33 73t-14.5 94.5t-1.5 101.5t6 93t7.5 70q-67 -7 -132.5 -11t-131.5 -6
q-46 -84 -93.5 -162t-99.5 -146q-23 -30 -57.5 -68.5t-75 -69.5t-84.5 -46.5t-85 1.5q-27 12 -44 33t-26 47t-10.5 54t1.5 54q7 48 28 89t52 74t70.5 57.5t82.5 39.5q74 26 155.5 35t178.5 14q42 75 82.5 151t85.5 151q30 52 60.5 97.5t61.5 82.5t63 62.5t65 37.5q8 2 8 -5
v-10q-11 -57 -27 -122t-28 -122q-17 -75 -33 -149.5t-30 -150.5q65 9 127.5 24t119 39.5t105 61t85.5 88.5zM852 368q17 134 47 269.5t65 266.5q-55 -32 -107 -101.5t-104 -158.5q-44 -74 -83.5 -148t-79.5 -147q65 4 130.5 8t131.5 11zM575 340q-91 -5 -174.5 -14.5
t-153.5 -35.5q-44 -16 -82.5 -40.5t-68 -57.5t-48 -74.5t-22.5 -91.5q0 -23 4.5 -47t14 -46t24.5 -39.5t36 -27.5q24 -11 50.5 -7.5t53.5 17t53 34t49 43.5t42 45.5t33 39.5q52 68 98 144.5t91 157.5z" />
    <glyph glyph-name="Atilde" unicode="&#xc3;" horiz-adv-x="1608" 
d="M1324 584q3 5 6.5 2t1.5 -6q-39 -54 -88.5 -91.5t-106.5 -63t-121 -40t-132 -23.5q-4 -24 -10.5 -66t-11 -91.5t-5 -101t7.5 -95t27 -74t53 -36.5q4 -1 3 -5t-6 -3q-35 7 -56.5 37t-33 73t-14.5 94.5t-1.5 101.5t6 93t7.5 70q-67 -7 -132.5 -11t-131.5 -6
q-46 -84 -93.5 -162t-99.5 -146q-23 -30 -57.5 -68.5t-75 -69.5t-84.5 -46.5t-85 1.5q-27 12 -44 33t-26 47t-10.5 54t1.5 54q7 48 28 89t52 74t70.5 57.5t82.5 39.5q74 26 155.5 35t178.5 14q42 75 82.5 151t85.5 151q30 52 60.5 97.5t61.5 82.5t63 62.5t65 37.5q8 2 8 -5
v-10q-11 -57 -27 -122t-28 -122q-17 -75 -33 -149.5t-30 -150.5q65 9 127.5 24t119 39.5t105 61t85.5 88.5zM852 368q17 134 47 269.5t65 266.5q-55 -32 -107 -101.5t-104 -158.5q-44 -74 -83.5 -148t-79.5 -147q65 4 130.5 8t131.5 11zM575 340q-91 -5 -174.5 -14.5
t-153.5 -35.5q-44 -16 -82.5 -40.5t-68 -57.5t-48 -74.5t-22.5 -91.5q0 -23 4.5 -47t14 -46t24.5 -39.5t36 -27.5q24 -11 50.5 -7.5t53.5 17t53 34t49 43.5t42 45.5t33 39.5q52 68 98 144.5t91 157.5z" />
    <glyph glyph-name="Adieresis" unicode="&#xc4;" horiz-adv-x="1608" 
d="M1324 584q3 5 6.5 2t1.5 -6q-39 -54 -88.5 -91.5t-106.5 -63t-121 -40t-132 -23.5q-4 -24 -10.5 -66t-11 -91.5t-5 -101t7.5 -95t27 -74t53 -36.5q4 -1 3 -5t-6 -3q-35 7 -56.5 37t-33 73t-14.5 94.5t-1.5 101.5t6 93t7.5 70q-67 -7 -132.5 -11t-131.5 -6
q-46 -84 -93.5 -162t-99.5 -146q-23 -30 -57.5 -68.5t-75 -69.5t-84.5 -46.5t-85 1.5q-27 12 -44 33t-26 47t-10.5 54t1.5 54q7 48 28 89t52 74t70.5 57.5t82.5 39.5q74 26 155.5 35t178.5 14q42 75 82.5 151t85.5 151q30 52 60.5 97.5t61.5 82.5t63 62.5t65 37.5q8 2 8 -5
v-10q-11 -57 -27 -122t-28 -122q-17 -75 -33 -149.5t-30 -150.5q65 9 127.5 24t119 39.5t105 61t85.5 88.5zM852 368q17 134 47 269.5t65 266.5q-55 -32 -107 -101.5t-104 -158.5q-44 -74 -83.5 -148t-79.5 -147q65 4 130.5 8t131.5 11zM575 340q-91 -5 -174.5 -14.5
t-153.5 -35.5q-44 -16 -82.5 -40.5t-68 -57.5t-48 -74.5t-22.5 -91.5q0 -23 4.5 -47t14 -46t24.5 -39.5t36 -27.5q24 -11 50.5 -7.5t53.5 17t53 34t49 43.5t42 45.5t33 39.5q52 68 98 144.5t91 157.5z" />
    <glyph glyph-name="Aring" unicode="&#xc5;" horiz-adv-x="1608" 
d="M1324 584q3 5 6.5 2t1.5 -6q-39 -54 -88.5 -91.5t-106.5 -63t-121 -40t-132 -23.5q-4 -24 -10.5 -66t-11 -91.5t-5 -101t7.5 -95t27 -74t53 -36.5q4 -1 3 -5t-6 -3q-35 7 -56.5 37t-33 73t-14.5 94.5t-1.5 101.5t6 93t7.5 70q-67 -7 -132.5 -11t-131.5 -6
q-46 -84 -93.5 -162t-99.5 -146q-23 -30 -57.5 -68.5t-75 -69.5t-84.5 -46.5t-85 1.5q-27 12 -44 33t-26 47t-10.5 54t1.5 54q7 48 28 89t52 74t70.5 57.5t82.5 39.5q74 26 155.5 35t178.5 14q42 75 82.5 151t85.5 151q30 52 60.5 97.5t61.5 82.5t63 62.5t65 37.5q8 2 8 -5
v-10q-11 -57 -27 -122t-28 -122q-17 -75 -33 -149.5t-30 -150.5q65 9 127.5 24t119 39.5t105 61t85.5 88.5zM852 368q17 134 47 269.5t65 266.5q-55 -32 -107 -101.5t-104 -158.5q-44 -74 -83.5 -148t-79.5 -147q65 4 130.5 8t131.5 11zM575 340q-91 -5 -174.5 -14.5
t-153.5 -35.5q-44 -16 -82.5 -40.5t-68 -57.5t-48 -74.5t-22.5 -91.5q0 -23 4.5 -47t14 -46t24.5 -39.5t36 -27.5q24 -11 50.5 -7.5t53.5 17t53 34t49 43.5t42 45.5t33 39.5q52 68 98 144.5t91 157.5zM1545 1386q23 0 39.5 -16t16.5 -38q0 -23 -17.5 -39t-39.5 -16
q-23 0 -38.5 17t-15.5 38q0 23 16.5 38.5t38.5 15.5zM1546 1368q-16 0 -27.5 -10.5t-11.5 -25.5q0 -17 12 -27.5t27 -10.5q16 0 27 12t11 26q0 16 -12 26t-26 10z" />
    <glyph glyph-name="AE" unicode="&#xc6;" horiz-adv-x="2894" 
d="M1324 584q3 5 6.5 2t1.5 -6q-39 -54 -88.5 -91.5t-106.5 -63t-121 -40t-132 -23.5q-4 -24 -10.5 -66t-11 -91.5t-5 -101t7.5 -95t27 -74t53 -36.5q4 -1 3 -5t-6 -3q-35 7 -56.5 37t-33 73t-14.5 94.5t-1.5 101.5t6 93t7.5 70q-67 -7 -132.5 -11t-131.5 -6
q-46 -84 -93.5 -162t-99.5 -146q-23 -30 -57.5 -68.5t-75 -69.5t-84.5 -46.5t-85 1.5q-27 12 -44 33t-26 47t-10.5 54t1.5 54q7 48 28 89t52 74t70.5 57.5t82.5 39.5q74 26 155.5 35t178.5 14q42 75 82.5 151t85.5 151q30 52 60.5 97.5t61.5 82.5t63 62.5t65 37.5q8 2 8 -5
v-10q-11 -57 -27 -122t-28 -122q-17 -75 -33 -149.5t-30 -150.5q65 9 127.5 24t119 39.5t105 61t85.5 88.5zM852 368q17 134 47 269.5t65 266.5q-55 -32 -107 -101.5t-104 -158.5q-44 -74 -83.5 -148t-79.5 -147q65 4 130.5 8t131.5 11zM575 340q-91 -5 -174.5 -14.5
t-153.5 -35.5q-44 -16 -82.5 -40.5t-68 -57.5t-48 -74.5t-22.5 -91.5q0 -23 4.5 -47t14 -46t24.5 -39.5t36 -27.5q24 -11 50.5 -7.5t53.5 17t53 34t49 43.5t42 45.5t33 39.5q52 68 98 144.5t91 157.5zM2160 895q-5 -4 -8 -1.5t0 6.5q22 20 56.5 26.5t74.5 8.5q32 20 71 28.5
t75 2.5q37 -6 31.5 -16.5t-39.5 -15.5q-30 -5 -59.5 -5.5t-60.5 -1.5q-22 -13 -41 -34t-29 -46q-9 -23 -6 -40.5t13.5 -30.5t27.5 -22.5t36 -16.5q18 -6 24 -10t3 -5.5t-13 -2.5t-23 -1q-98 -7 -183 -40.5t-155 -84.5t-124 -116t-89 -135q-23 -50 -37 -102t-16 -101.5t9 -95
t39 -81t73 -59t111 -30.5q42 -4 84.5 2.5t83 20.5t78.5 35t71 46q73 56 130 135.5t96 177.5q2 5 5.5 3.5t1.5 -7.5q-38 -97 -96 -178t-131 -138q-82 -62 -173 -90t-185 -17q-67 8 -114 33.5t-76.5 63t-42.5 85.5t-10.5 100.5t19 108.5t45.5 110q37 70 94.5 135.5t132 115.5
t165 80.5t192.5 31.5q19 0 24.5 -1.5t-14.5 5.5q-21 7 -41.5 16t-35 22.5t-20 32.5t2.5 45q8 23 26 44.5t39 34.5q-35 -2 -65 -9t-47 -22zM2314 936q25 1 53 1.5t55 5.5q23 4 28.5 7t-22.5 8q-29 5 -59 -2t-55 -20z" />
    <glyph glyph-name="Ccedilla" unicode="&#xc7;" horiz-adv-x="1033" 
d="M934 791q-2 -5 -6 -3.5t-2 5.5q18 54 10 88t-34 50t-66.5 15t-88.5 -16q-68 -23 -135.5 -65.5t-130 -99t-118 -124t-100 -140t-76.5 -147t-46 -144.5q-8 -41 -10 -89t6 -94t30 -85.5t62 -63.5q34 -17 72.5 -19t76 6.5t72.5 25t63 37.5q66 49 114.5 110.5t66.5 127.5
q1 5 6.5 4.5t3.5 -6.5q-9 -34 -26.5 -68t-42.5 -66t-54.5 -60.5t-62.5 -51.5t-68 -40t-71.5 -25.5t-74.5 -6.5t-77 17q-51 21 -81 61t-44 88.5t-15 101t6 99.5q12 75 45 152t81.5 151t109 142t128.5 124t141 97t145 62q49 14 92 14.5t71 -17t37 -53.5t-9 -94z" />
    <glyph glyph-name="Egrave" unicode="&#xc8;" horiz-adv-x="1286" 
d="M552 895q-5 -4 -8 -1.5t0 6.5q22 20 56.5 26.5t74.5 8.5q32 20 71 28.5t75 2.5q37 -6 31.5 -16.5t-39.5 -15.5q-30 -5 -59.5 -5.5t-60.5 -1.5q-22 -13 -41 -34t-29 -46q-9 -23 -6 -40.5t13.5 -30.5t27.5 -22.5t36 -16.5q18 -6 24 -10t3 -5.5t-13 -2.5t-23 -1
q-98 -7 -183 -40.5t-155 -84.5t-124 -116t-89 -135q-23 -50 -37 -102t-16 -101.5t9 -95t39 -81t73 -59t111 -30.5q42 -4 84.5 2.5t83 20.5t78.5 35t71 46q73 56 130 135.5t96 177.5q2 5 5.5 3.5t1.5 -7.5q-38 -97 -96 -178t-131 -138q-82 -62 -173 -90t-185 -17
q-67 8 -114 33.5t-76.5 63t-42.5 85.5t-10.5 100.5t19 108.5t45.5 110q37 70 94.5 135.5t132 115.5t165 80.5t192.5 31.5q19 0 24.5 -1.5t-14.5 5.5q-21 7 -41.5 16t-35 22.5t-20 32.5t2.5 45q8 23 26 44.5t39 34.5q-35 -2 -65 -9t-47 -22zM706 936q25 1 53 1.5t55 5.5
q23 4 28.5 7t-22.5 8q-29 5 -59 -2t-55 -20z" />
    <glyph glyph-name="Eacute" unicode="&#xc9;" horiz-adv-x="1286" 
d="M552 895q-5 -4 -8 -1.5t0 6.5q22 20 56.5 26.5t74.5 8.5q32 20 71 28.5t75 2.5q37 -6 31.5 -16.5t-39.5 -15.5q-30 -5 -59.5 -5.5t-60.5 -1.5q-22 -13 -41 -34t-29 -46q-9 -23 -6 -40.5t13.5 -30.5t27.5 -22.5t36 -16.5q18 -6 24 -10t3 -5.5t-13 -2.5t-23 -1
q-98 -7 -183 -40.5t-155 -84.5t-124 -116t-89 -135q-23 -50 -37 -102t-16 -101.5t9 -95t39 -81t73 -59t111 -30.5q42 -4 84.5 2.5t83 20.5t78.5 35t71 46q73 56 130 135.5t96 177.5q2 5 5.5 3.5t1.5 -7.5q-38 -97 -96 -178t-131 -138q-82 -62 -173 -90t-185 -17
q-67 8 -114 33.5t-76.5 63t-42.5 85.5t-10.5 100.5t19 108.5t45.5 110q37 70 94.5 135.5t132 115.5t165 80.5t192.5 31.5q19 0 24.5 -1.5t-14.5 5.5q-21 7 -41.5 16t-35 22.5t-20 32.5t2.5 45q8 23 26 44.5t39 34.5q-35 -2 -65 -9t-47 -22zM706 936q25 1 53 1.5t55 5.5
q23 4 28.5 7t-22.5 8q-29 5 -59 -2t-55 -20z" />
    <glyph glyph-name="Ecircumflex" unicode="&#xca;" horiz-adv-x="1286" 
d="M552 895q-5 -4 -8 -1.5t0 6.5q22 20 56.5 26.5t74.5 8.5q32 20 71 28.5t75 2.5q37 -6 31.5 -16.5t-39.5 -15.5q-30 -5 -59.5 -5.5t-60.5 -1.5q-22 -13 -41 -34t-29 -46q-9 -23 -6 -40.5t13.5 -30.5t27.5 -22.5t36 -16.5q18 -6 24 -10t3 -5.5t-13 -2.5t-23 -1
q-98 -7 -183 -40.5t-155 -84.5t-124 -116t-89 -135q-23 -50 -37 -102t-16 -101.5t9 -95t39 -81t73 -59t111 -30.5q42 -4 84.5 2.5t83 20.5t78.5 35t71 46q73 56 130 135.5t96 177.5q2 5 5.5 3.5t1.5 -7.5q-38 -97 -96 -178t-131 -138q-82 -62 -173 -90t-185 -17
q-67 8 -114 33.5t-76.5 63t-42.5 85.5t-10.5 100.5t19 108.5t45.5 110q37 70 94.5 135.5t132 115.5t165 80.5t192.5 31.5q19 0 24.5 -1.5t-14.5 5.5q-21 7 -41.5 16t-35 22.5t-20 32.5t2.5 45q8 23 26 44.5t39 34.5q-35 -2 -65 -9t-47 -22zM706 936q25 1 53 1.5t55 5.5
q23 4 28.5 7t-22.5 8q-29 5 -59 -2t-55 -20z" />
    <glyph glyph-name="Edieresis" unicode="&#xcb;" horiz-adv-x="1286" 
d="M552 895q-5 -4 -8 -1.5t0 6.5q22 20 56.5 26.5t74.5 8.5q32 20 71 28.5t75 2.5q37 -6 31.5 -16.5t-39.5 -15.5q-30 -5 -59.5 -5.5t-60.5 -1.5q-22 -13 -41 -34t-29 -46q-9 -23 -6 -40.5t13.5 -30.5t27.5 -22.5t36 -16.5q18 -6 24 -10t3 -5.5t-13 -2.5t-23 -1
q-98 -7 -183 -40.5t-155 -84.5t-124 -116t-89 -135q-23 -50 -37 -102t-16 -101.5t9 -95t39 -81t73 -59t111 -30.5q42 -4 84.5 2.5t83 20.5t78.5 35t71 46q73 56 130 135.5t96 177.5q2 5 5.5 3.5t1.5 -7.5q-38 -97 -96 -178t-131 -138q-82 -62 -173 -90t-185 -17
q-67 8 -114 33.5t-76.5 63t-42.5 85.5t-10.5 100.5t19 108.5t45.5 110q37 70 94.5 135.5t132 115.5t165 80.5t192.5 31.5q19 0 24.5 -1.5t-14.5 5.5q-21 7 -41.5 16t-35 22.5t-20 32.5t2.5 45q8 23 26 44.5t39 34.5q-35 -2 -65 -9t-47 -22zM706 936q25 1 53 1.5t55 5.5
q23 4 28.5 7t-22.5 8q-29 5 -59 -2t-55 -20z" />
    <glyph glyph-name="Igrave" unicode="&#xcc;" horiz-adv-x="1013" 
d="M722 913q-2 4 4.5 6.5t16 2t19 -5t14.5 -14.5q8 -22 1.5 -62.5t-23 -93t-41 -114t-53.5 -125.5t-60 -127t-60.5 -118.5t-55.5 -101t-44 -73.5q22 0 46.5 -1.5t49.5 -6.5q5 -2 3.5 -6t-6.5 -3q-55 9 -98 8q-46 -74 -91 -129.5t-85 -85.5q-38 -28 -60.5 -24t-28 26.5
t6 57.5t40.5 68.5t76.5 60.5t113.5 33q20 34 54 99.5t72.5 146.5t77 169.5t66.5 169t42 145.5t3 98zM403 76q-63 -7 -107.5 -32.5t-72 -57t-38 -63t-6 -51.5t23.5 -23t51 23q22 18 43 43t40 53t36 56t30 52z" />
    <glyph glyph-name="Iacute" unicode="&#xcd;" horiz-adv-x="1013" 
d="M722 913q-2 4 4.5 6.5t16 2t19 -5t14.5 -14.5q8 -22 1.5 -62.5t-23 -93t-41 -114t-53.5 -125.5t-60 -127t-60.5 -118.5t-55.5 -101t-44 -73.5q22 0 46.5 -1.5t49.5 -6.5q5 -2 3.5 -6t-6.5 -3q-55 9 -98 8q-46 -74 -91 -129.5t-85 -85.5q-38 -28 -60.5 -24t-28 26.5
t6 57.5t40.5 68.5t76.5 60.5t113.5 33q20 34 54 99.5t72.5 146.5t77 169.5t66.5 169t42 145.5t3 98zM403 76q-63 -7 -107.5 -32.5t-72 -57t-38 -63t-6 -51.5t23.5 -23t51 23q22 18 43 43t40 53t36 56t30 52z" />
    <glyph glyph-name="Icircumflex" unicode="&#xce;" horiz-adv-x="1013" 
d="M722 913q-2 4 4.5 6.5t16 2t19 -5t14.5 -14.5q8 -22 1.5 -62.5t-23 -93t-41 -114t-53.5 -125.5t-60 -127t-60.5 -118.5t-55.5 -101t-44 -73.5q22 0 46.5 -1.5t49.5 -6.5q5 -2 3.5 -6t-6.5 -3q-55 9 -98 8q-46 -74 -91 -129.5t-85 -85.5q-38 -28 -60.5 -24t-28 26.5
t6 57.5t40.5 68.5t76.5 60.5t113.5 33q20 34 54 99.5t72.5 146.5t77 169.5t66.5 169t42 145.5t3 98zM403 76q-63 -7 -107.5 -32.5t-72 -57t-38 -63t-6 -51.5t23.5 -23t51 23q22 18 43 43t40 53t36 56t30 52z" />
    <glyph glyph-name="Idieresis" unicode="&#xcf;" horiz-adv-x="1013" 
d="M722 913q-2 4 4.5 6.5t16 2t19 -5t14.5 -14.5q8 -22 1.5 -62.5t-23 -93t-41 -114t-53.5 -125.5t-60 -127t-60.5 -118.5t-55.5 -101t-44 -73.5q22 0 46.5 -1.5t49.5 -6.5q5 -2 3.5 -6t-6.5 -3q-55 9 -98 8q-46 -74 -91 -129.5t-85 -85.5q-38 -28 -60.5 -24t-28 26.5
t6 57.5t40.5 68.5t76.5 60.5t113.5 33q20 34 54 99.5t72.5 146.5t77 169.5t66.5 169t42 145.5t3 98zM403 76q-63 -7 -107.5 -32.5t-72 -57t-38 -63t-6 -51.5t23.5 -23t51 23q22 18 43 43t40 53t36 56t30 52z" />
    <glyph glyph-name="Eth" unicode="&#xd0;" horiz-adv-x="1906" 
 />
    <glyph glyph-name="Ntilde" unicode="&#xd1;" horiz-adv-x="1273" 
d="M509 958q-2 4 4.5 6.5t15.5 1.5t18.5 -5.5t13.5 -13.5q8 -18 3 -51.5t-19 -74.5t-33 -85.5t-38.5 -84t-35.5 -71t-24 -45.5q-4 -9 -18 -36.5t-32 -63.5t-36 -77t-30 -77.5t-15 -63.5t10 -35q13 -7 35.5 4.5t53 37t67 62.5t76 80.5t82 92t83.5 96.5q66 78 125 144.5
t103 106.5q34 31 50.5 40t26.5 0q9 -9 3 -39t-22.5 -74t-40.5 -99t-51 -116q-5 -10 -21.5 -47t-38 -88t-44.5 -110.5t-40 -113.5t-24.5 -97t1.5 -62q7 -14 25.5 -10.5t44.5 19t57 40t63 53.5t62.5 59.5t56 56.5t43 45.5t23.5 26.5q2 2 5.5 0.5t0.5 -6.5q-8 -10 -37 -41.5
t-68.5 -71t-84 -80.5t-85.5 -69.5t-72.5 -38t-43.5 13.5q-10 19 -4 63.5t21.5 102.5t37 122t42.5 122t38 103t24 64q16 40 30.5 77.5t26 69.5t20 58.5t11.5 44.5q-7 -5 -13 -9.5t-16 -13.5q-45 -40 -103 -107.5t-124 -143.5q-63 -73 -127 -145.5t-119.5 -127.5t-98.5 -84.5
t-64 -17.5q-15 10 -15 38t9 65.5t24.5 79.5t31 79t28.5 65t17 38q27 64 53.5 127.5t45 119.5t27 100.5t-0.5 70.5z" />
    <glyph glyph-name="Ograve" unicode="&#xd2;" horiz-adv-x="1316" 
d="M627 675q-36 -18 -73.5 -49t-74.5 -70.5t-71.5 -86t-64.5 -95.5q37 -19 81 -16t91 19.5t94.5 43.5t90.5 57t79.5 59.5t61.5 50.5q2 2 5 -1.5t0 -6.5q-26 -22 -63 -52t-80.5 -60t-92 -57.5t-96 -43.5t-93 -18t-83.5 18q-20 -33 -40 -74t-36.5 -85t-27 -90.5t-11.5 -90.5
q-1 -54 16 -91t48 -57t74.5 -22t97.5 13q63 19 122.5 63t113 102.5t99.5 127.5t80 139.5t55 138t26 122.5q5 80 -10.5 155.5t-55.5 132.5t-105.5 89.5t-160.5 26.5q-66 -4 -126 -37.5t-108.5 -85t-82 -114.5t-46 -125.5t0.5 -118.5t56 -93q29 51 62 99.5t68.5 89.5
t72.5 74.5t75 54.5q15 9 23.5 5t11.5 -12.5t2 -18t-5 -10.5zM313 385q-46 38 -60 95t-3 121t44.5 129t83.5 118t113 87.5t132 39.5q96 6 164 -27t109.5 -91.5t58 -135t10.5 -157.5q-5 -56 -26.5 -124.5t-56 -140.5t-80.5 -142t-100 -129.5t-114.5 -103.5t-124.5 -63
q-58 -17 -105 -13t-80.5 26t-51.5 61t-19 92q-1 44 8 91t24 93.5t34.5 90.5t39.5 83z" />
    <glyph glyph-name="Oacute" unicode="&#xd3;" horiz-adv-x="1316" 
d="M627 675q-36 -18 -73.5 -49t-74.5 -70.5t-71.5 -86t-64.5 -95.5q37 -19 81 -16t91 19.5t94.5 43.5t90.5 57t79.5 59.5t61.5 50.5q2 2 5 -1.5t0 -6.5q-26 -22 -63 -52t-80.5 -60t-92 -57.5t-96 -43.5t-93 -18t-83.5 18q-20 -33 -40 -74t-36.5 -85t-27 -90.5t-11.5 -90.5
q-1 -54 16 -91t48 -57t74.5 -22t97.5 13q63 19 122.5 63t113 102.5t99.5 127.5t80 139.5t55 138t26 122.5q5 80 -10.5 155.5t-55.5 132.5t-105.5 89.5t-160.5 26.5q-66 -4 -126 -37.5t-108.5 -85t-82 -114.5t-46 -125.5t0.5 -118.5t56 -93q29 51 62 99.5t68.5 89.5
t72.5 74.5t75 54.5q15 9 23.5 5t11.5 -12.5t2 -18t-5 -10.5zM313 385q-46 38 -60 95t-3 121t44.5 129t83.5 118t113 87.5t132 39.5q96 6 164 -27t109.5 -91.5t58 -135t10.5 -157.5q-5 -56 -26.5 -124.5t-56 -140.5t-80.5 -142t-100 -129.5t-114.5 -103.5t-124.5 -63
q-58 -17 -105 -13t-80.5 26t-51.5 61t-19 92q-1 44 8 91t24 93.5t34.5 90.5t39.5 83z" />
    <glyph glyph-name="Ocircumflex" unicode="&#xd4;" horiz-adv-x="1316" 
d="M627 675q-36 -18 -73.5 -49t-74.5 -70.5t-71.5 -86t-64.5 -95.5q37 -19 81 -16t91 19.5t94.5 43.5t90.5 57t79.5 59.5t61.5 50.5q2 2 5 -1.5t0 -6.5q-26 -22 -63 -52t-80.5 -60t-92 -57.5t-96 -43.5t-93 -18t-83.5 18q-20 -33 -40 -74t-36.5 -85t-27 -90.5t-11.5 -90.5
q-1 -54 16 -91t48 -57t74.5 -22t97.5 13q63 19 122.5 63t113 102.5t99.5 127.5t80 139.5t55 138t26 122.5q5 80 -10.5 155.5t-55.5 132.5t-105.5 89.5t-160.5 26.5q-66 -4 -126 -37.5t-108.5 -85t-82 -114.5t-46 -125.5t0.5 -118.5t56 -93q29 51 62 99.5t68.5 89.5
t72.5 74.5t75 54.5q15 9 23.5 5t11.5 -12.5t2 -18t-5 -10.5zM313 385q-46 38 -60 95t-3 121t44.5 129t83.5 118t113 87.5t132 39.5q96 6 164 -27t109.5 -91.5t58 -135t10.5 -157.5q-5 -56 -26.5 -124.5t-56 -140.5t-80.5 -142t-100 -129.5t-114.5 -103.5t-124.5 -63
q-58 -17 -105 -13t-80.5 26t-51.5 61t-19 92q-1 44 8 91t24 93.5t34.5 90.5t39.5 83z" />
    <glyph glyph-name="Otilde" unicode="&#xd5;" horiz-adv-x="1316" 
d="M627 675q-36 -18 -73.5 -49t-74.5 -70.5t-71.5 -86t-64.5 -95.5q37 -19 81 -16t91 19.5t94.5 43.5t90.5 57t79.5 59.5t61.5 50.5q2 2 5 -1.5t0 -6.5q-26 -22 -63 -52t-80.5 -60t-92 -57.5t-96 -43.5t-93 -18t-83.5 18q-20 -33 -40 -74t-36.5 -85t-27 -90.5t-11.5 -90.5
q-1 -54 16 -91t48 -57t74.5 -22t97.5 13q63 19 122.5 63t113 102.5t99.5 127.5t80 139.5t55 138t26 122.5q5 80 -10.5 155.5t-55.5 132.5t-105.5 89.5t-160.5 26.5q-66 -4 -126 -37.5t-108.5 -85t-82 -114.5t-46 -125.5t0.5 -118.5t56 -93q29 51 62 99.5t68.5 89.5
t72.5 74.5t75 54.5q15 9 23.5 5t11.5 -12.5t2 -18t-5 -10.5zM313 385q-46 38 -60 95t-3 121t44.5 129t83.5 118t113 87.5t132 39.5q96 6 164 -27t109.5 -91.5t58 -135t10.5 -157.5q-5 -56 -26.5 -124.5t-56 -140.5t-80.5 -142t-100 -129.5t-114.5 -103.5t-124.5 -63
q-58 -17 -105 -13t-80.5 26t-51.5 61t-19 92q-1 44 8 91t24 93.5t34.5 90.5t39.5 83z" />
    <glyph glyph-name="Odieresis" unicode="&#xd6;" horiz-adv-x="1316" 
d="M627 675q-36 -18 -73.5 -49t-74.5 -70.5t-71.5 -86t-64.5 -95.5q37 -19 81 -16t91 19.5t94.5 43.5t90.5 57t79.5 59.5t61.5 50.5q2 2 5 -1.5t0 -6.5q-26 -22 -63 -52t-80.5 -60t-92 -57.5t-96 -43.5t-93 -18t-83.5 18q-20 -33 -40 -74t-36.5 -85t-27 -90.5t-11.5 -90.5
q-1 -54 16 -91t48 -57t74.5 -22t97.5 13q63 19 122.5 63t113 102.5t99.5 127.5t80 139.5t55 138t26 122.5q5 80 -10.5 155.5t-55.5 132.5t-105.5 89.5t-160.5 26.5q-66 -4 -126 -37.5t-108.5 -85t-82 -114.5t-46 -125.5t0.5 -118.5t56 -93q29 51 62 99.5t68.5 89.5
t72.5 74.5t75 54.5q15 9 23.5 5t11.5 -12.5t2 -18t-5 -10.5zM313 385q-46 38 -60 95t-3 121t44.5 129t83.5 118t113 87.5t132 39.5q96 6 164 -27t109.5 -91.5t58 -135t10.5 -157.5q-5 -56 -26.5 -124.5t-56 -140.5t-80.5 -142t-100 -129.5t-114.5 -103.5t-124.5 -63
q-58 -17 -105 -13t-80.5 26t-51.5 61t-19 92q-1 44 8 91t24 93.5t34.5 90.5t39.5 83z" />
    <glyph glyph-name="multiply" unicode="&#xd7;" horiz-adv-x="230" 
 />
    <glyph glyph-name="Oslash" unicode="&#xd8;" horiz-adv-x="1316" 
d="M627 675q-36 -18 -73.5 -49t-74.5 -70.5t-71.5 -86t-64.5 -95.5q37 -19 81 -16t91 19.5t94.5 43.5t90.5 57t79.5 59.5t61.5 50.5q2 2 5 -1.5t0 -6.5q-26 -22 -63 -52t-80.5 -60t-92 -57.5t-96 -43.5t-93 -18t-83.5 18q-20 -33 -40 -74t-36.5 -85t-27 -90.5t-11.5 -90.5
q-1 -54 16 -91t48 -57t74.5 -22t97.5 13q63 19 122.5 63t113 102.5t99.5 127.5t80 139.5t55 138t26 122.5q5 80 -10.5 155.5t-55.5 132.5t-105.5 89.5t-160.5 26.5q-66 -4 -126 -37.5t-108.5 -85t-82 -114.5t-46 -125.5t0.5 -118.5t56 -93q29 51 62 99.5t68.5 89.5
t72.5 74.5t75 54.5q15 9 23.5 5t11.5 -12.5t2 -18t-5 -10.5zM313 385q-46 38 -60 95t-3 121t44.5 129t83.5 118t113 87.5t132 39.5q96 6 164 -27t109.5 -91.5t58 -135t10.5 -157.5q-5 -56 -26.5 -124.5t-56 -140.5t-80.5 -142t-100 -129.5t-114.5 -103.5t-124.5 -63
q-58 -17 -105 -13t-80.5 26t-51.5 61t-19 92q-1 44 8 91t24 93.5t34.5 90.5t39.5 83z" />
    <glyph glyph-name="Ugrave" unicode="&#xd9;" horiz-adv-x="1310" 
d="M326 638q-4 -2 -6 1t1 5q23 13 44.5 24t41.5 22q38 72 72.5 128.5t68.5 94.5q22 26 45 39.5t39 12t19.5 -18.5t-13.5 -52q-20 -38 -68 -90.5t-137 -108.5q-27 -58 -61.5 -138.5t-66 -166.5t-54 -170t-25.5 -149q0 -25 3 -43.5t11.5 -29t23 -11.5t35.5 9q31 15 75 50.5
t95 84.5t107.5 108t112.5 121t110 124t101 117q41 48 80.5 94t81.5 94q4 4 10 5t12 -1.5t10.5 -6.5t5.5 -10q2 -10 -9 -34.5t-26 -53t-31 -55.5t-25 -41q-29 -49 -60.5 -105.5t-62 -115.5t-58.5 -118.5t-48 -114.5t-30.5 -103t-6.5 -84q3 -30 14.5 -48t29.5 -27t40.5 -10.5
t48.5 1.5q5 1 5.5 -3t-4.5 -5q-30 -3 -55 -1t-43.5 12t-30.5 29t-17 48q-8 43 5 109.5t40 143.5t63 159t74 157.5t73.5 138.5t61.5 102q-35 -40 -69.5 -80t-69.5 -82q-47 -54 -101 -115.5t-110 -123t-112 -120.5t-107.5 -108.5t-96 -85.5t-76.5 -53q-14 -8 -31 -12
t-32.5 -2.5t-29.5 9.5t-22 24q-14 30 -9 82.5t22 115.5t43.5 132t54.5 133.5t54 118.5t44 87q-17 -9 -35.5 -18.5t-38.5 -20.5zM439 709q82 55 125 103t63 86q16 33 12.5 45t-16.5 9.5t-31.5 -16t-33.5 -31.5q-36 -45 -65 -96t-54 -100z" />
    <glyph glyph-name="Uacute" unicode="&#xda;" horiz-adv-x="1310" 
d="M326 638q-4 -2 -6 1t1 5q23 13 44.5 24t41.5 22q38 72 72.5 128.5t68.5 94.5q22 26 45 39.5t39 12t19.5 -18.5t-13.5 -52q-20 -38 -68 -90.5t-137 -108.5q-27 -58 -61.5 -138.5t-66 -166.5t-54 -170t-25.5 -149q0 -25 3 -43.5t11.5 -29t23 -11.5t35.5 9q31 15 75 50.5
t95 84.5t107.5 108t112.5 121t110 124t101 117q41 48 80.5 94t81.5 94q4 4 10 5t12 -1.5t10.5 -6.5t5.5 -10q2 -10 -9 -34.5t-26 -53t-31 -55.5t-25 -41q-29 -49 -60.5 -105.5t-62 -115.5t-58.5 -118.5t-48 -114.5t-30.5 -103t-6.5 -84q3 -30 14.5 -48t29.5 -27t40.5 -10.5
t48.5 1.5q5 1 5.5 -3t-4.5 -5q-30 -3 -55 -1t-43.5 12t-30.5 29t-17 48q-8 43 5 109.5t40 143.5t63 159t74 157.5t73.5 138.5t61.5 102q-35 -40 -69.5 -80t-69.5 -82q-47 -54 -101 -115.5t-110 -123t-112 -120.5t-107.5 -108.5t-96 -85.5t-76.5 -53q-14 -8 -31 -12
t-32.5 -2.5t-29.5 9.5t-22 24q-14 30 -9 82.5t22 115.5t43.5 132t54.5 133.5t54 118.5t44 87q-17 -9 -35.5 -18.5t-38.5 -20.5zM439 709q82 55 125 103t63 86q16 33 12.5 45t-16.5 9.5t-31.5 -16t-33.5 -31.5q-36 -45 -65 -96t-54 -100z" />
    <glyph glyph-name="Ucircumflex" unicode="&#xdb;" horiz-adv-x="1310" 
d="M326 638q-4 -2 -6 1t1 5q23 13 44.5 24t41.5 22q38 72 72.5 128.5t68.5 94.5q22 26 45 39.5t39 12t19.5 -18.5t-13.5 -52q-20 -38 -68 -90.5t-137 -108.5q-27 -58 -61.5 -138.5t-66 -166.5t-54 -170t-25.5 -149q0 -25 3 -43.5t11.5 -29t23 -11.5t35.5 9q31 15 75 50.5
t95 84.5t107.5 108t112.5 121t110 124t101 117q41 48 80.5 94t81.5 94q4 4 10 5t12 -1.5t10.5 -6.5t5.5 -10q2 -10 -9 -34.5t-26 -53t-31 -55.5t-25 -41q-29 -49 -60.5 -105.5t-62 -115.5t-58.5 -118.5t-48 -114.5t-30.5 -103t-6.5 -84q3 -30 14.5 -48t29.5 -27t40.5 -10.5
t48.5 1.5q5 1 5.5 -3t-4.5 -5q-30 -3 -55 -1t-43.5 12t-30.5 29t-17 48q-8 43 5 109.5t40 143.5t63 159t74 157.5t73.5 138.5t61.5 102q-35 -40 -69.5 -80t-69.5 -82q-47 -54 -101 -115.5t-110 -123t-112 -120.5t-107.5 -108.5t-96 -85.5t-76.5 -53q-14 -8 -31 -12
t-32.5 -2.5t-29.5 9.5t-22 24q-14 30 -9 82.5t22 115.5t43.5 132t54.5 133.5t54 118.5t44 87q-17 -9 -35.5 -18.5t-38.5 -20.5zM439 709q82 55 125 103t63 86q16 33 12.5 45t-16.5 9.5t-31.5 -16t-33.5 -31.5q-36 -45 -65 -96t-54 -100z" />
    <glyph glyph-name="Udieresis" unicode="&#xdc;" horiz-adv-x="1310" 
d="M326 638q-4 -2 -6 1t1 5q23 13 44.5 24t41.5 22q38 72 72.5 128.5t68.5 94.5q22 26 45 39.5t39 12t19.5 -18.5t-13.5 -52q-20 -38 -68 -90.5t-137 -108.5q-27 -58 -61.5 -138.5t-66 -166.5t-54 -170t-25.5 -149q0 -25 3 -43.5t11.5 -29t23 -11.5t35.5 9q31 15 75 50.5
t95 84.5t107.5 108t112.5 121t110 124t101 117q41 48 80.5 94t81.5 94q4 4 10 5t12 -1.5t10.5 -6.5t5.5 -10q2 -10 -9 -34.5t-26 -53t-31 -55.5t-25 -41q-29 -49 -60.5 -105.5t-62 -115.5t-58.5 -118.5t-48 -114.5t-30.5 -103t-6.5 -84q3 -30 14.5 -48t29.5 -27t40.5 -10.5
t48.5 1.5q5 1 5.5 -3t-4.5 -5q-30 -3 -55 -1t-43.5 12t-30.5 29t-17 48q-8 43 5 109.5t40 143.5t63 159t74 157.5t73.5 138.5t61.5 102q-35 -40 -69.5 -80t-69.5 -82q-47 -54 -101 -115.5t-110 -123t-112 -120.5t-107.5 -108.5t-96 -85.5t-76.5 -53q-14 -8 -31 -12
t-32.5 -2.5t-29.5 9.5t-22 24q-14 30 -9 82.5t22 115.5t43.5 132t54.5 133.5t54 118.5t44 87q-17 -9 -35.5 -18.5t-38.5 -20.5zM439 709q82 55 125 103t63 86q16 33 12.5 45t-16.5 9.5t-31.5 -16t-33.5 -31.5q-36 -45 -65 -96t-54 -100z" />
    <glyph glyph-name="Yacute" unicode="&#xdd;" horiz-adv-x="1252" 
d="M545 961q1 1 9 -2t13.5 -9.5t4.5 -17t-18 -24.5q-45 -38 -98 -90.5t-101.5 -112.5t-86.5 -123t-53 -121q-9 -34 -8.5 -65.5t13.5 -54.5t39 -34t69 -5q37 6 80 24.5t87.5 44t89.5 56.5t86 63t77 62.5t64 55.5q3 4 11.5 6.5t17 0t14.5 -10.5t5 -25q-2 -37 -21 -103.5
t-51 -148.5q53 2 101 -7.5t90 -29.5q5 -2 3 -6t-5 -2q-90 41 -192 35q-16 -45 -38.5 -99.5t-49 -112.5t-57.5 -117t-64 -112t-68 -97.5t-71 -73.5q-20 -16 -44 -28t-48 -12.5t-45 13t-34 48.5q-19 55 -10 116.5t35.5 121t64.5 111.5t77 89q66 62 147.5 104t167.5 56
q7 19 21.5 60t28 85t20 81t-2.5 47q-28 -25 -64.5 -55.5t-78 -62.5t-86.5 -63t-89.5 -56.5t-87.5 -43t-80 -23.5q-46 -8 -75 5t-43.5 38t-17 59t4.5 69q7 39 27 86t48 95.5t62 96.5t70 90t72 75.5t68 53.5zM744 313q-84 -14 -161 -55t-142 -102q-38 -35 -75 -86t-63 -109.5
t-35.5 -119t8.5 -113.5q11 -31 29.5 -43t40 -11.5t43.5 11.5t41 27q31 26 62.5 70t61.5 98t58 113.5t52 117.5t44.5 110.5t35.5 91.5z" />
    <glyph glyph-name="Thorn" unicode="&#xde;" 
 />
    <glyph glyph-name="germandbls" unicode="&#xdf;" 
 />
    <glyph glyph-name="agrave" unicode="&#xe0;" horiz-adv-x="455" 
d="M306 276q-2 -14 -4.5 -35.5t-2.5 -44.5t3 -44t11 -33q8 -13 20 -10t23 13q14 13 28.5 34.5t28 45.5t24.5 47.5t18 40.5q2 5 6.5 3.5t2.5 -5.5q-8 -18 -19.5 -42.5t-25 -49t-28.5 -46.5t-29 -35q-13 -12 -28 -16t-30 7q-14 9 -22 27.5t-11.5 40.5t-4 44t2.5 39
q-9 -9 -21.5 -20.5t-26 -23.5t-27.5 -23t-27 -19q-8 -5 -19.5 -11t-23.5 -8.5t-22.5 -0.5t-16.5 13q-10 21 -1 45.5t28 46t42 36.5t42 17q25 4 41 -10.5t27 -34.5l10.5 10.5t10.5 9.5q5 3 14 0t7 -8zM258 260q-9 18 -25 32t-35 7q-10 -4 -22 -16.5t-22.5 -29t-18.5 -34.5
t-11 -31q-3 -12 0.5 -16.5t9.5 -4.5t14 3.5t15 8.5q11 8 24 18t26 21t24.5 22t20.5 20z" />
    <glyph glyph-name="aacute" unicode="&#xe1;" horiz-adv-x="455" 
d="M306 276q-2 -14 -4.5 -35.5t-2.5 -44.5t3 -44t11 -33q8 -13 20 -10t23 13q14 13 28.5 34.5t28 45.5t24.5 47.5t18 40.5q2 5 6.5 3.5t2.5 -5.5q-8 -18 -19.5 -42.5t-25 -49t-28.5 -46.5t-29 -35q-13 -12 -28 -16t-30 7q-14 9 -22 27.5t-11.5 40.5t-4 44t2.5 39
q-9 -9 -21.5 -20.5t-26 -23.5t-27.5 -23t-27 -19q-8 -5 -19.5 -11t-23.5 -8.5t-22.5 -0.5t-16.5 13q-10 21 -1 45.5t28 46t42 36.5t42 17q25 4 41 -10.5t27 -34.5l10.5 10.5t10.5 9.5q5 3 14 0t7 -8zM258 260q-9 18 -25 32t-35 7q-10 -4 -22 -16.5t-22.5 -29t-18.5 -34.5
t-11 -31q-3 -12 0.5 -16.5t9.5 -4.5t14 3.5t15 8.5q11 8 24 18t26 21t24.5 22t20.5 20z" />
    <glyph glyph-name="acircumflex" unicode="&#xe2;" horiz-adv-x="455" 
d="M306 276q-2 -14 -4.5 -35.5t-2.5 -44.5t3 -44t11 -33q8 -13 20 -10t23 13q14 13 28.5 34.5t28 45.5t24.5 47.5t18 40.5q2 5 6.5 3.5t2.5 -5.5q-8 -18 -19.5 -42.5t-25 -49t-28.5 -46.5t-29 -35q-13 -12 -28 -16t-30 7q-14 9 -22 27.5t-11.5 40.5t-4 44t2.5 39
q-9 -9 -21.5 -20.5t-26 -23.5t-27.5 -23t-27 -19q-8 -5 -19.5 -11t-23.5 -8.5t-22.5 -0.5t-16.5 13q-10 21 -1 45.5t28 46t42 36.5t42 17q25 4 41 -10.5t27 -34.5l10.5 10.5t10.5 9.5q5 3 14 0t7 -8zM258 260q-9 18 -25 32t-35 7q-10 -4 -22 -16.5t-22.5 -29t-18.5 -34.5
t-11 -31q-3 -12 0.5 -16.5t9.5 -4.5t14 3.5t15 8.5q11 8 24 18t26 21t24.5 22t20.5 20z" />
    <glyph glyph-name="atilde" unicode="&#xe3;" horiz-adv-x="455" 
d="M306 276q-2 -14 -4.5 -35.5t-2.5 -44.5t3 -44t11 -33q8 -13 20 -10t23 13q14 13 28.5 34.5t28 45.5t24.5 47.5t18 40.5q2 5 6.5 3.5t2.5 -5.5q-8 -18 -19.5 -42.5t-25 -49t-28.5 -46.5t-29 -35q-13 -12 -28 -16t-30 7q-14 9 -22 27.5t-11.5 40.5t-4 44t2.5 39
q-9 -9 -21.5 -20.5t-26 -23.5t-27.5 -23t-27 -19q-8 -5 -19.5 -11t-23.5 -8.5t-22.5 -0.5t-16.5 13q-10 21 -1 45.5t28 46t42 36.5t42 17q25 4 41 -10.5t27 -34.5l10.5 10.5t10.5 9.5q5 3 14 0t7 -8zM258 260q-9 18 -25 32t-35 7q-10 -4 -22 -16.5t-22.5 -29t-18.5 -34.5
t-11 -31q-3 -12 0.5 -16.5t9.5 -4.5t14 3.5t15 8.5q11 8 24 18t26 21t24.5 22t20.5 20z" />
    <glyph glyph-name="adieresis" unicode="&#xe4;" horiz-adv-x="455" 
d="M306 276q-2 -14 -4.5 -35.5t-2.5 -44.5t3 -44t11 -33q8 -13 20 -10t23 13q14 13 28.5 34.5t28 45.5t24.5 47.5t18 40.5q2 5 6.5 3.5t2.5 -5.5q-8 -18 -19.5 -42.5t-25 -49t-28.5 -46.5t-29 -35q-13 -12 -28 -16t-30 7q-14 9 -22 27.5t-11.5 40.5t-4 44t2.5 39
q-9 -9 -21.5 -20.5t-26 -23.5t-27.5 -23t-27 -19q-8 -5 -19.5 -11t-23.5 -8.5t-22.5 -0.5t-16.5 13q-10 21 -1 45.5t28 46t42 36.5t42 17q25 4 41 -10.5t27 -34.5l10.5 10.5t10.5 9.5q5 3 14 0t7 -8zM258 260q-9 18 -25 32t-35 7q-10 -4 -22 -16.5t-22.5 -29t-18.5 -34.5
t-11 -31q-3 -12 0.5 -16.5t9.5 -4.5t14 3.5t15 8.5q11 8 24 18t26 21t24.5 22t20.5 20z" />
    <glyph glyph-name="aring" unicode="&#xe5;" horiz-adv-x="455" 
d="M306 276q-2 -14 -4.5 -35.5t-2.5 -44.5t3 -44t11 -33q8 -13 20 -10t23 13q14 13 28.5 34.5t28 45.5t24.5 47.5t18 40.5q2 5 6.5 3.5t2.5 -5.5q-8 -18 -19.5 -42.5t-25 -49t-28.5 -46.5t-29 -35q-13 -12 -28 -16t-30 7q-14 9 -22 27.5t-11.5 40.5t-4 44t2.5 39
q-9 -9 -21.5 -20.5t-26 -23.5t-27.5 -23t-27 -19q-8 -5 -19.5 -11t-23.5 -8.5t-22.5 -0.5t-16.5 13q-10 21 -1 45.5t28 46t42 36.5t42 17q25 4 41 -10.5t27 -34.5l10.5 10.5t10.5 9.5q5 3 14 0t7 -8zM258 260q-9 18 -25 32t-35 7q-10 -4 -22 -16.5t-22.5 -29t-18.5 -34.5
t-11 -31q-3 -12 0.5 -16.5t9.5 -4.5t14 3.5t15 8.5q11 8 24 18t26 21t24.5 22t20.5 20zM96 464q23 0 39.5 -16t16.5 -38q0 -23 -17.5 -39t-39.5 -16q-23 0 -38.5 17t-15.5 38q0 23 16.5 38.5t38.5 15.5zM97 446q-16 0 -27.5 -10.5t-11.5 -25.5q0 -17 12 -27.5t27 -10.5
q16 0 27 12t11 26q0 16 -12 26t-26 10z" />
    <glyph glyph-name="ae" unicode="&#xe6;" horiz-adv-x="786" 
d="M306 276q-2 -14 -4.5 -35.5t-2.5 -44.5t3 -44t11 -33q8 -13 20 -10t23 13q14 13 28.5 34.5t28 45.5t24.5 47.5t18 40.5q2 5 6.5 3.5t2.5 -5.5q-8 -18 -19.5 -42.5t-25 -49t-28.5 -46.5t-29 -35q-13 -12 -28 -16t-30 7q-14 9 -22 27.5t-11.5 40.5t-4 44t2.5 39
q-9 -9 -21.5 -20.5t-26 -23.5t-27.5 -23t-27 -19q-8 -5 -19.5 -11t-23.5 -8.5t-22.5 -0.5t-16.5 13q-10 21 -1 45.5t28 46t42 36.5t42 17q25 4 41 -10.5t27 -34.5l10.5 10.5t10.5 9.5q5 3 14 0t7 -8zM258 260q-9 18 -25 32t-35 7q-10 -4 -22 -16.5t-22.5 -29t-18.5 -34.5
t-11 -31q-3 -12 0.5 -16.5t9.5 -4.5t14 3.5t15 8.5q11 8 24 18t26 21t24.5 22t20.5 20zM559 216q33 14 49 28.5t21 28.5q4 10 1 15.5t-9.5 6t-14 -2t-13.5 -8.5q-13 -13 -22 -31.5t-12 -36.5zM640 270q-5 -14 -24.5 -32t-57.5 -33q-2 -24 7.5 -39.5t38.5 -8.5q22 6 48 21
t51.5 34t47.5 39.5t35 38.5q3 4 6.5 1t1.5 -6q-14 -19 -36.5 -40.5t-48.5 -41t-53 -34.5t-50 -21q-25 -7 -50 1t-33 35q-5 16 -2 33t10.5 32.5t19.5 27.5t25 20q14 7 27.5 9t23 -1t14 -12t-0.5 -23z" />
    <glyph glyph-name="ccedilla" unicode="&#xe7;" horiz-adv-x="308" 
d="M166 265q0 -5 -4.5 -5t-4.5 5q0 8 -2 15t-13 5q-11 -3 -20.5 -14t-17.5 -25t-12.5 -28.5t-4.5 -24.5q0 -14 11.5 -16.5t26 1.5t29 11t22.5 12q38 22 73.5 46t58.5 43q3 2 4.5 -1t-0.5 -5q-23 -18 -57.5 -42.5t-73.5 -47.5q-12 -8 -30 -17.5t-37 -14t-35.5 -1.5t-25.5 21
q-8 18 -2.5 39.5t19 39t33 28.5t40.5 9q23 -3 23 -33z" />
    <glyph glyph-name="egrave" unicode="&#xe8;" horiz-adv-x="331" 
d="M104 216q33 14 49 28.5t21 28.5q4 10 1 15.5t-9.5 6t-14 -2t-13.5 -8.5q-13 -13 -22 -31.5t-12 -36.5zM185 270q-5 -14 -24.5 -32t-57.5 -33q-2 -24 7.5 -39.5t38.5 -8.5q22 6 48 21t51.5 34t47.5 39.5t35 38.5q3 4 6.5 1t1.5 -6q-14 -19 -36.5 -40.5t-48.5 -41
t-53 -34.5t-50 -21q-25 -7 -50 1t-33 35q-5 16 -2 33t10.5 32.5t19.5 27.5t25 20q14 7 27.5 9t23 -1t14 -12t-0.5 -23z" />
    <glyph glyph-name="eacute" unicode="&#xe9;" horiz-adv-x="331" 
d="M104 216q33 14 49 28.5t21 28.5q4 10 1 15.5t-9.5 6t-14 -2t-13.5 -8.5q-13 -13 -22 -31.5t-12 -36.5zM185 270q-5 -14 -24.5 -32t-57.5 -33q-2 -24 7.5 -39.5t38.5 -8.5q22 6 48 21t51.5 34t47.5 39.5t35 38.5q3 4 6.5 1t1.5 -6q-14 -19 -36.5 -40.5t-48.5 -41
t-53 -34.5t-50 -21q-25 -7 -50 1t-33 35q-5 16 -2 33t10.5 32.5t19.5 27.5t25 20q14 7 27.5 9t23 -1t14 -12t-0.5 -23z" />
    <glyph glyph-name="ecircumflex" unicode="&#xea;" horiz-adv-x="331" 
d="M104 216q33 14 49 28.5t21 28.5q4 10 1 15.5t-9.5 6t-14 -2t-13.5 -8.5q-13 -13 -22 -31.5t-12 -36.5zM185 270q-5 -14 -24.5 -32t-57.5 -33q-2 -24 7.5 -39.5t38.5 -8.5q22 6 48 21t51.5 34t47.5 39.5t35 38.5q3 4 6.5 1t1.5 -6q-14 -19 -36.5 -40.5t-48.5 -41
t-53 -34.5t-50 -21q-25 -7 -50 1t-33 35q-5 16 -2 33t10.5 32.5t19.5 27.5t25 20q14 7 27.5 9t23 -1t14 -12t-0.5 -23z" />
    <glyph glyph-name="edieresis" unicode="&#xeb;" horiz-adv-x="331" 
d="M104 216q33 14 49 28.5t21 28.5q4 10 1 15.5t-9.5 6t-14 -2t-13.5 -8.5q-13 -13 -22 -31.5t-12 -36.5zM185 270q-5 -14 -24.5 -32t-57.5 -33q-2 -24 7.5 -39.5t38.5 -8.5q22 6 48 21t51.5 34t47.5 39.5t35 38.5q3 4 6.5 1t1.5 -6q-14 -19 -36.5 -40.5t-48.5 -41
t-53 -34.5t-50 -21q-25 -7 -50 1t-33 35q-5 16 -2 33t10.5 32.5t19.5 27.5t25 20q14 7 27.5 9t23 -1t14 -12t-0.5 -23z" />
    <glyph glyph-name="igrave" unicode="&#xec;" 
 />
    <glyph glyph-name="iacute" unicode="&#xed;" 
 />
    <glyph glyph-name="icircumflex" unicode="&#xee;" 
 />
    <glyph glyph-name="idieresis" unicode="&#xef;" 
 />
    <glyph glyph-name="eth" unicode="&#xf0;" 
 />
    <glyph glyph-name="ntilde" unicode="&#xf1;" horiz-adv-x="502" 
d="M176 297q17 6 24 -0.5t4 -20.5q-9 -38 -17.5 -72t-17.5 -65q10 21 24.5 42.5t28.5 39.5q18 22 33.5 28t26.5 -6q4 -4 7.5 -11.5t7 -15.5t7 -15.5t8.5 -12.5q5 -6 17.5 -3t26.5 9t26.5 13t18.5 11q27 17 52 35.5t49 36.5q3 2 5.5 -0.5t-0.5 -5.5q-19 -15 -46 -35t-56 -39
q-14 -9 -28.5 -17t-29 -14t-27 -8t-22.5 2q-11 5 -16.5 15.5t-9.5 24.5t-8.5 19t-10.5 4t-12 -7l-13 -13q-27 -33 -48.5 -71t-32.5 -74q-1 -10 -7.5 -10t-6.5 8q3 22 8 52t11.5 61.5t12.5 61.5t11 53z" />
    <glyph glyph-name="ograve" unicode="&#xf2;" horiz-adv-x="263" 
d="M149 298q4 -2 3.5 -5.5t-4.5 -2.5q-3 1 -7 1.5t-8 -0.5q13 -14 34 -24q0 9 -1 20t-4 21t-8.5 18.5t-14.5 12.5q-10 3 -15 0t-6 -9.5t1 -14t6 -13.5q11 1 24 -4zM81 282q8 8 15.5 12.5t20.5 6.5q-6 9 -7.5 19t1.5 17t11 10t20 -1q11 -5 18 -14.5t10.5 -21t4.5 -24t1 -22.5
q26 -9 48.5 -1.5t38.5 27.5q4 4 6.5 1t0.5 -6q-19 -22 -42 -29.5t-53 0.5q-2 -19 -7.5 -37.5t-16.5 -34.5t-28.5 -24t-37.5 3q-15 8 -21 23.5t-6 33t6 34.5t17 28zM167 259q-26 10 -42 29q-14 -7 -22 -20.5t-11.5 -29t-2 -31.5t8.5 -28q5 -8 11 -9t12.5 1t12.5 7t10 11
q11 14 16 33t7 37z" />
    <glyph glyph-name="oacute" unicode="&#xf3;" horiz-adv-x="263" 
d="M149 298q4 -2 3.5 -5.5t-4.5 -2.5q-3 1 -7 1.5t-8 -0.5q13 -14 34 -24q0 9 -1 20t-4 21t-8.5 18.5t-14.5 12.5q-10 3 -15 0t-6 -9.5t1 -14t6 -13.5q11 1 24 -4zM81 282q8 8 15.5 12.5t20.5 6.5q-6 9 -7.5 19t1.5 17t11 10t20 -1q11 -5 18 -14.5t10.5 -21t4.5 -24t1 -22.5
q26 -9 48.5 -1.5t38.5 27.5q4 4 6.5 1t0.5 -6q-19 -22 -42 -29.5t-53 0.5q-2 -19 -7.5 -37.5t-16.5 -34.5t-28.5 -24t-37.5 3q-15 8 -21 23.5t-6 33t6 34.5t17 28zM167 259q-26 10 -42 29q-14 -7 -22 -20.5t-11.5 -29t-2 -31.5t8.5 -28q5 -8 11 -9t12.5 1t12.5 7t10 11
q11 14 16 33t7 37z" />
    <glyph glyph-name="ocircumflex" unicode="&#xf4;" horiz-adv-x="263" 
d="M149 298q4 -2 3.5 -5.5t-4.5 -2.5q-3 1 -7 1.5t-8 -0.5q13 -14 34 -24q0 9 -1 20t-4 21t-8.5 18.5t-14.5 12.5q-10 3 -15 0t-6 -9.5t1 -14t6 -13.5q11 1 24 -4zM81 282q8 8 15.5 12.5t20.5 6.5q-6 9 -7.5 19t1.5 17t11 10t20 -1q11 -5 18 -14.5t10.5 -21t4.5 -24t1 -22.5
q26 -9 48.5 -1.5t38.5 27.5q4 4 6.5 1t0.5 -6q-19 -22 -42 -29.5t-53 0.5q-2 -19 -7.5 -37.5t-16.5 -34.5t-28.5 -24t-37.5 3q-15 8 -21 23.5t-6 33t6 34.5t17 28zM167 259q-26 10 -42 29q-14 -7 -22 -20.5t-11.5 -29t-2 -31.5t8.5 -28q5 -8 11 -9t12.5 1t12.5 7t10 11
q11 14 16 33t7 37z" />
    <glyph glyph-name="otilde" unicode="&#xf5;" horiz-adv-x="263" 
d="M149 298q4 -2 3.5 -5.5t-4.5 -2.5q-3 1 -7 1.5t-8 -0.5q13 -14 34 -24q0 9 -1 20t-4 21t-8.5 18.5t-14.5 12.5q-10 3 -15 0t-6 -9.5t1 -14t6 -13.5q11 1 24 -4zM81 282q8 8 15.5 12.5t20.5 6.5q-6 9 -7.5 19t1.5 17t11 10t20 -1q11 -5 18 -14.5t10.5 -21t4.5 -24t1 -22.5
q26 -9 48.5 -1.5t38.5 27.5q4 4 6.5 1t0.5 -6q-19 -22 -42 -29.5t-53 0.5q-2 -19 -7.5 -37.5t-16.5 -34.5t-28.5 -24t-37.5 3q-15 8 -21 23.5t-6 33t6 34.5t17 28zM167 259q-26 10 -42 29q-14 -7 -22 -20.5t-11.5 -29t-2 -31.5t8.5 -28q5 -8 11 -9t12.5 1t12.5 7t10 11
q11 14 16 33t7 37z" />
    <glyph glyph-name="odieresis" unicode="&#xf6;" horiz-adv-x="263" 
d="M149 298q4 -2 3.5 -5.5t-4.5 -2.5q-3 1 -7 1.5t-8 -0.5q13 -14 34 -24q0 9 -1 20t-4 21t-8.5 18.5t-14.5 12.5q-10 3 -15 0t-6 -9.5t1 -14t6 -13.5q11 1 24 -4zM81 282q8 8 15.5 12.5t20.5 6.5q-6 9 -7.5 19t1.5 17t11 10t20 -1q11 -5 18 -14.5t10.5 -21t4.5 -24t1 -22.5
q26 -9 48.5 -1.5t38.5 27.5q4 4 6.5 1t0.5 -6q-19 -22 -42 -29.5t-53 0.5q-2 -19 -7.5 -37.5t-16.5 -34.5t-28.5 -24t-37.5 3q-15 8 -21 23.5t-6 33t6 34.5t17 28zM167 259q-26 10 -42 29q-14 -7 -22 -20.5t-11.5 -29t-2 -31.5t8.5 -28q5 -8 11 -9t12.5 1t12.5 7t10 11
q11 14 16 33t7 37z" />
    <glyph glyph-name="divide" unicode="&#xf7;" horiz-adv-x="238" 
d="M68 126q7 -9 1.5 -22t-16 -23.5t-22.5 -16t-18 1.5q-7 9 -1.5 21.5t16 23.5t22.5 16t18 -1zM227 310q8 -9 2.5 -21.5t-16.5 -23t-24 -15.5t-19 1q-7 7 -1.5 19.5t16 23.5t23 17t19.5 -1z" />
    <glyph glyph-name="oslash" unicode="&#xf8;" horiz-adv-x="263" 
d="M149 298q4 -2 3.5 -5.5t-4.5 -2.5q-3 1 -7 1.5t-8 -0.5q13 -14 34 -24q0 9 -1 20t-4 21t-8.5 18.5t-14.5 12.5q-10 3 -15 0t-6 -9.5t1 -14t6 -13.5q11 1 24 -4zM81 282q8 8 15.5 12.5t20.5 6.5q-6 9 -7.5 19t1.5 17t11 10t20 -1q11 -5 18 -14.5t10.5 -21t4.5 -24t1 -22.5
q26 -9 48.5 -1.5t38.5 27.5q4 4 6.5 1t0.5 -6q-19 -22 -42 -29.5t-53 0.5q-2 -19 -7.5 -37.5t-16.5 -34.5t-28.5 -24t-37.5 3q-15 8 -21 23.5t-6 33t6 34.5t17 28zM167 259q-26 10 -42 29q-14 -7 -22 -20.5t-11.5 -29t-2 -31.5t8.5 -28q5 -8 11 -9t12.5 1t12.5 7t10 11
q11 14 16 33t7 37z" />
    <glyph glyph-name="ugrave" unicode="&#xf9;" horiz-adv-x="369" 
d="M136 297q18 5 29.5 -1t0.5 -24q-9 -14 -19.5 -35.5t-20 -45t-16.5 -46t-9 -38.5q-2 -20 6 -17.5t17 11.5q38 38 65 83t53 84q12 8 19.5 2t1.5 -21q-2 -7 -8.5 -23.5t-9.5 -27.5q-2 -9 0.5 -11t7.5 -1t11 4.5t10 6.5q11 8 24.5 19.5t26.5 24.5t24.5 26t19.5 23q2 3 4.5 1
t0.5 -5q-16 -21 -44 -49t-53 -47q-18 -14 -33 -13t-15 21q1 10 4 21t6 27q-27 -45 -54.5 -85.5t-55.5 -68.5q-15 -14 -28 -15t-18 23q-2 12 2.5 43t12.5 63.5t18.5 59t19.5 31.5z" />
    <glyph glyph-name="uacute" unicode="&#xfa;" horiz-adv-x="369" 
d="M136 297q18 5 29.5 -1t0.5 -24q-9 -14 -19.5 -35.5t-20 -45t-16.5 -46t-9 -38.5q-2 -20 6 -17.5t17 11.5q38 38 65 83t53 84q12 8 19.5 2t1.5 -21q-2 -7 -8.5 -23.5t-9.5 -27.5q-2 -9 0.5 -11t7.5 -1t11 4.5t10 6.5q11 8 24.5 19.5t26.5 24.5t24.5 26t19.5 23q2 3 4.5 1
t0.5 -5q-16 -21 -44 -49t-53 -47q-18 -14 -33 -13t-15 21q1 10 4 21t6 27q-27 -45 -54.5 -85.5t-55.5 -68.5q-15 -14 -28 -15t-18 23q-2 12 2.5 43t12.5 63.5t18.5 59t19.5 31.5z" />
    <glyph glyph-name="ucircumflex" unicode="&#xfb;" horiz-adv-x="369" 
d="M136 297q18 5 29.5 -1t0.5 -24q-9 -14 -19.5 -35.5t-20 -45t-16.5 -46t-9 -38.5q-2 -20 6 -17.5t17 11.5q38 38 65 83t53 84q12 8 19.5 2t1.5 -21q-2 -7 -8.5 -23.5t-9.5 -27.5q-2 -9 0.5 -11t7.5 -1t11 4.5t10 6.5q11 8 24.5 19.5t26.5 24.5t24.5 26t19.5 23q2 3 4.5 1
t0.5 -5q-16 -21 -44 -49t-53 -47q-18 -14 -33 -13t-15 21q1 10 4 21t6 27q-27 -45 -54.5 -85.5t-55.5 -68.5q-15 -14 -28 -15t-18 23q-2 12 2.5 43t12.5 63.5t18.5 59t19.5 31.5z" />
    <glyph glyph-name="udieresis" unicode="&#xfc;" horiz-adv-x="369" 
d="M136 297q18 5 29.5 -1t0.5 -24q-9 -14 -19.5 -35.5t-20 -45t-16.5 -46t-9 -38.5q-2 -20 6 -17.5t17 11.5q38 38 65 83t53 84q12 8 19.5 2t1.5 -21q-2 -7 -8.5 -23.5t-9.5 -27.5q-2 -9 0.5 -11t7.5 -1t11 4.5t10 6.5q11 8 24.5 19.5t26.5 24.5t24.5 26t19.5 23q2 3 4.5 1
t0.5 -5q-16 -21 -44 -49t-53 -47q-18 -14 -33 -13t-15 21q1 10 4 21t6 27q-27 -45 -54.5 -85.5t-55.5 -68.5q-15 -14 -28 -15t-18 23q-2 12 2.5 43t12.5 63.5t18.5 59t19.5 31.5z" />
    <glyph glyph-name="yacute" unicode="&#xfd;" horiz-adv-x="455" 
d="M212 350q-6 -6 -13 -18.5t-12.5 -27t-9 -27.5t-2.5 -20q1 -10 9.5 -8.5t19.5 8t21.5 14.5t15.5 11q8 6 19 13.5t23 11.5t22.5 0.5t16.5 -20.5q2 -5 3 -12t1 -14q33 10 64.5 17t64.5 12q5 1 6 -2.5t-3 -5.5q-35 -5 -67.5 -13t-64.5 -18q-4 -69 -21.5 -138t-42.5 -132
q-17 -44 -41 -93t-55 -94.5t-69 -83t-81 -57.5q-42 -21 -75.5 -8t-45.5 66q-10 42 -2.5 89t25 93t42.5 87t51 73q48 60 117.5 110.5t162.5 84.5q2 22 0.5 32.5t-7 12t-15.5 -4t-25 -15.5q-7 -5 -19.5 -14t-26 -15.5t-25 -5.5t-14.5 16q-2 10 -0.5 25.5t5.5 31.5t10 29.5
t14 18.5t18 0.5t6 -9.5zM291 238q-91 -33 -157.5 -83t-113.5 -107q-26 -31 -50.5 -72t-41.5 -86t-24.5 -90.5t1.5 -86.5q9 -44 36.5 -58t66.5 6q38 21 73 61.5t64.5 88.5t52 97.5t36.5 88.5q19 57 35 118.5t22 122.5z" />
    <glyph glyph-name="thorn" unicode="&#xfe;" horiz-adv-x="638" 
 />
    <glyph glyph-name="ydieresis" unicode="&#xff;" horiz-adv-x="455" 
d="M212 350q-6 -6 -13 -18.5t-12.5 -27t-9 -27.5t-2.5 -20q1 -10 9.5 -8.5t19.5 8t21.5 14.5t15.5 11q8 6 19 13.5t23 11.5t22.5 0.5t16.5 -20.5q2 -5 3 -12t1 -14q33 10 64.5 17t64.5 12q5 1 6 -2.5t-3 -5.5q-35 -5 -67.5 -13t-64.5 -18q-4 -69 -21.5 -138t-42.5 -132
q-17 -44 -41 -93t-55 -94.5t-69 -83t-81 -57.5q-42 -21 -75.5 -8t-45.5 66q-10 42 -2.5 89t25 93t42.5 87t51 73q48 60 117.5 110.5t162.5 84.5q2 22 0.5 32.5t-7 12t-15.5 -4t-25 -15.5q-7 -5 -19.5 -14t-26 -15.5t-25 -5.5t-14.5 16q-2 10 -0.5 25.5t5.5 31.5t10 29.5
t14 18.5t18 0.5t6 -9.5zM291 238q-91 -33 -157.5 -83t-113.5 -107q-26 -31 -50.5 -72t-41.5 -86t-24.5 -90.5t1.5 -86.5q9 -44 36.5 -58t66.5 6q38 21 73 61.5t64.5 88.5t52 97.5t36.5 88.5q19 57 35 118.5t22 122.5z" />
    <glyph glyph-name="dotlessi" unicode="&#x131;" 
 />
    <glyph glyph-name="Lslash" unicode="&#x141;" horiz-adv-x="1335" 
d="M793 968q-2 3 6 6.5t19 3.5t21 -5t13 -19q6 -38 -6 -90.5t-36.5 -115t-59 -132t-74.5 -139t-82.5 -137t-82.5 -127t-74.5 -107.5t-59.5 -79q50 23 116 37t137 26t141.5 25.5t131.5 35.5t106 55t65 84q2 5 6.5 3t2.5 -7q-21 -54 -68 -88t-109.5 -56t-135 -35.5t-145 -26
t-139.5 -27.5t-119 -40q-10 -11 -24 -27t-29.5 -32.5t-30.5 -31.5t-27 -24q-17 -14 -25.5 -16.5t-11 2.5t1.5 15.5t13 22.5q22 29 53.5 54.5t65.5 42.5q21 29 54 77.5t72 110.5t80.5 133t81 144.5t72.5 146t55 136.5t30 116t-5 85zM341 1q-26 -13 -54 -37.5t-46 -49.5
q-6 -8 -9.5 -14t-3.5 -8.5t5.5 0.5t17.5 14q23 20 47 46t43 49z" />
    <glyph glyph-name="lslash" unicode="&#x142;" horiz-adv-x="525" 
d="M525 290q2 3 5 1.5t1 -5.5q-7 -14 -23 -42.5t-37 -63.5t-46.5 -71.5t-51.5 -65.5q-24 -26 -47.5 -43t-45 -18.5t-41.5 15t-37 57.5q-19 46 -23 101.5t1.5 112.5t18.5 112.5t28 101.5q26 78 64 154.5t86.5 141t106.5 112t123 67.5q37 12 73.5 13t67 -11.5t50.5 -40.5
t24 -74q5 -62 -21 -121.5t-68 -113.5t-92.5 -99.5t-95.5 -77.5q-78 -54 -161.5 -92t-161.5 -49q-13 -66 -14.5 -125.5t12.5 -104.5q12 -40 28.5 -55.5t36 -13.5t41 17.5t42.5 38.5q25 29 50.5 65t46.5 71t37 63.5t23 42.5zM225 300q74 11 157 49.5t159 91.5q44 31 93 75
t90 96.5t66.5 111t21.5 118.5q-3 43 -21 69t-46 38t-62 10t-70 -15q-51 -19 -96.5 -60t-85.5 -95t-74 -118t-60 -129t-44.5 -127.5t-27.5 -114.5z" />
    <glyph glyph-name="OE" unicode="&#x152;" horiz-adv-x="2602" 
d="M627 675q-36 -18 -73.5 -49t-74.5 -70.5t-71.5 -86t-64.5 -95.5q37 -19 81 -16t91 19.5t94.5 43.5t90.5 57t79.5 59.5t61.5 50.5q2 2 5 -1.5t0 -6.5q-26 -22 -63 -52t-80.5 -60t-92 -57.5t-96 -43.5t-93 -18t-83.5 18q-20 -33 -40 -74t-36.5 -85t-27 -90.5t-11.5 -90.5
q-1 -54 16 -91t48 -57t74.5 -22t97.5 13q63 19 122.5 63t113 102.5t99.5 127.5t80 139.5t55 138t26 122.5q5 80 -10.5 155.5t-55.5 132.5t-105.5 89.5t-160.5 26.5q-66 -4 -126 -37.5t-108.5 -85t-82 -114.5t-46 -125.5t0.5 -118.5t56 -93q29 51 62 99.5t68.5 89.5
t72.5 74.5t75 54.5q15 9 23.5 5t11.5 -12.5t2 -18t-5 -10.5zM313 385q-46 38 -60 95t-3 121t44.5 129t83.5 118t113 87.5t132 39.5q96 6 164 -27t109.5 -91.5t58 -135t10.5 -157.5q-5 -56 -26.5 -124.5t-56 -140.5t-80.5 -142t-100 -129.5t-114.5 -103.5t-124.5 -63
q-58 -17 -105 -13t-80.5 26t-51.5 61t-19 92q-1 44 8 91t24 93.5t34.5 90.5t39.5 83zM1868 895q-5 -4 -8 -1.5t0 6.5q22 20 56.5 26.5t74.5 8.5q32 20 71 28.5t75 2.5q37 -6 31.5 -16.5t-39.5 -15.5q-30 -5 -59.5 -5.5t-60.5 -1.5q-22 -13 -41 -34t-29 -46q-9 -23 -6 -40.5
t13.5 -30.5t27.5 -22.5t36 -16.5q18 -6 24 -10t3 -5.5t-13 -2.5t-23 -1q-98 -7 -183 -40.5t-155 -84.5t-124 -116t-89 -135q-23 -50 -37 -102t-16 -101.5t9 -95t39 -81t73 -59t111 -30.5q42 -4 84.5 2.5t83 20.5t78.5 35t71 46q73 56 130 135.5t96 177.5q2 5 5.5 3.5
t1.5 -7.5q-38 -97 -96 -178t-131 -138q-82 -62 -173 -90t-185 -17q-67 8 -114 33.5t-76.5 63t-42.5 85.5t-10.5 100.5t19 108.5t45.5 110q37 70 94.5 135.5t132 115.5t165 80.5t192.5 31.5q19 0 24.5 -1.5t-14.5 5.5q-21 7 -41.5 16t-35 22.5t-20 32.5t2.5 45q8 23 26 44.5
t39 34.5q-35 -2 -65 -9t-47 -22zM2022 936q25 1 53 1.5t55 5.5q23 4 28.5 7t-22.5 8q-29 5 -59 -2t-55 -20z" />
    <glyph glyph-name="oe" unicode="&#x153;" horiz-adv-x="594" 
d="M149 298q4 -2 3.5 -5.5t-4.5 -2.5q-3 1 -7 1.5t-8 -0.5q13 -14 34 -24q0 9 -1 20t-4 21t-8.5 18.5t-14.5 12.5q-10 3 -15 0t-6 -9.5t1 -14t6 -13.5q11 1 24 -4zM81 282q8 8 15.5 12.5t20.5 6.5q-6 9 -7.5 19t1.5 17t11 10t20 -1q11 -5 18 -14.5t10.5 -21t4.5 -24t1 -22.5
q26 -9 48.5 -1.5t38.5 27.5q4 4 6.5 1t0.5 -6q-19 -22 -42 -29.5t-53 0.5q-2 -19 -7.5 -37.5t-16.5 -34.5t-28.5 -24t-37.5 3q-15 8 -21 23.5t-6 33t6 34.5t17 28zM167 259q-26 10 -42 29q-14 -7 -22 -20.5t-11.5 -29t-2 -31.5t8.5 -28q5 -8 11 -9t12.5 1t12.5 7t10 11
q11 14 16 33t7 37zM367 216q33 14 49 28.5t21 28.5q4 10 1 15.5t-9.5 6t-14 -2t-13.5 -8.5q-13 -13 -22 -31.5t-12 -36.5zM448 270q-5 -14 -24.5 -32t-57.5 -33q-2 -24 7.5 -39.5t38.5 -8.5q22 6 48 21t51.5 34t47.5 39.5t35 38.5q3 4 6.5 1t1.5 -6q-14 -19 -36.5 -40.5
t-48.5 -41t-53 -34.5t-50 -21q-25 -7 -50 1t-33 35q-5 16 -2 33t10.5 32.5t19.5 27.5t25 20q14 7 27.5 9t23 -1t14 -12t-0.5 -23z" />
    <glyph glyph-name="Scaron" unicode="&#x160;" horiz-adv-x="1154" 
d="M839 291q4 0 4 -5t-4 -5q-37 -5 -104 -30.5t-145 -65.5q34 -41 33.5 -79.5t-42.5 -77.5q-23 -21 -56.5 -41t-73 -38t-83 -33t-85 -27t-79 -19t-65.5 -9q-59 -3 -19 40q32 34 89 73.5t121 77.5t127 72t108 57q-35 33 -76 60t-83 54.5t-81.5 57t-72.5 66.5
q-42 48 -50.5 91.5t6.5 83t48.5 75t75.5 67.5q60 46 136 87t157 72.5t161.5 52t150.5 24.5q66 4 105 -5.5t57 -29t16.5 -47t-16.5 -59t-41.5 -65.5t-58.5 -67q-4 -3 -7 0.5t1 6.5q30 31 55 63.5t40 62t17 55t-14 44t-53 27t-100 5.5q-70 -5 -151.5 -25.5t-162.5 -52.5
t-155.5 -73.5t-131.5 -87.5q-39 -32 -61.5 -62t-30.5 -58.5t-3.5 -55.5t18.5 -52q25 -46 66 -84.5t87.5 -73.5t92.5 -70.5t79 -75.5q81 41 147.5 67.5t106.5 31.5zM571 175q-31 -16 -69.5 -36.5t-80.5 -44.5t-85 -49.5t-82.5 -51t-72.5 -51t-55 -47.5q-15 -17 -12 -22t24 -4
q28 1 65 8.5t79 19.5t85 27.5t82 33.5t72 37.5t54 39.5q33 35 34 67.5t-38 72.5z" />
    <glyph glyph-name="scaron" unicode="&#x161;" horiz-adv-x="341" 
d="M113 279q-1 -9 -8 -8.5t-7 8.5q0 11 -5.5 15.5t-13 4.5t-15.5 -3.5t-12 -9.5q-14 -20 -8.5 -43t20 -45.5t33.5 -43.5t31 -36q54 42 109 83t100 89q5 5 10 1.5t1 -8.5q-45 -49 -102 -92.5t-111 -85.5q11 -14 20 -30t12.5 -32.5t2 -34.5t-11.5 -36q-14 -24 -37 -35
t-45.5 -9t-39 17t-17.5 42q0 15 6.5 30t17 28.5t23.5 24.5t27 19q-11 15 -27 34t-30 40t-23 43t-6 43q3 28 20 45.5t36 22t34.5 -4.5t15.5 -33zM137 -13q2 23 -7 47t-26 44q-10 -7 -22 -16.5t-22.5 -21t-17.5 -25t-7 -28.5q0 -24 15.5 -34.5t34 -9.5t34.5 12.5t18 31.5z" />
    <glyph glyph-name="Ydieresis" unicode="&#x178;" horiz-adv-x="1252" 
d="M545 961q1 1 9 -2t13.5 -9.5t4.5 -17t-18 -24.5q-45 -38 -98 -90.5t-101.5 -112.5t-86.5 -123t-53 -121q-9 -34 -8.5 -65.5t13.5 -54.5t39 -34t69 -5q37 6 80 24.5t87.5 44t89.5 56.5t86 63t77 62.5t64 55.5q3 4 11.5 6.5t17 0t14.5 -10.5t5 -25q-2 -37 -21 -103.5
t-51 -148.5q53 2 101 -7.5t90 -29.5q5 -2 3 -6t-5 -2q-90 41 -192 35q-16 -45 -38.5 -99.5t-49 -112.5t-57.5 -117t-64 -112t-68 -97.5t-71 -73.5q-20 -16 -44 -28t-48 -12.5t-45 13t-34 48.5q-19 55 -10 116.5t35.5 121t64.5 111.5t77 89q66 62 147.5 104t167.5 56
q7 19 21.5 60t28 85t20 81t-2.5 47q-28 -25 -64.5 -55.5t-78 -62.5t-86.5 -63t-89.5 -56.5t-87.5 -43t-80 -23.5q-46 -8 -75 5t-43.5 38t-17 59t4.5 69q7 39 27 86t48 95.5t62 96.5t70 90t72 75.5t68 53.5zM744 313q-84 -14 -161 -55t-142 -102q-38 -35 -75 -86t-63 -109.5
t-35.5 -119t8.5 -113.5q11 -31 29.5 -43t40 -11.5t43.5 11.5t41 27q31 26 62.5 70t61.5 98t58 113.5t52 117.5t44.5 110.5t35.5 91.5z" />
    <glyph glyph-name="Zcaron" unicode="&#x17d;" horiz-adv-x="1901" 
d="M308 951q5 2 6.5 -2.5t-3.5 -6.5q-34 -11 -48.5 -19.5t-13.5 -13.5q3 -10 28 -18.5t67 -15t98 -11.5t122.5 -8.5t140 -5t149.5 -0.5q121 0 239 5.5t215 14.5q46 29 95 54t103 37q19 4 35.5 1t25 -11t6.5 -19t-19 -21q-22 -13 -75.5 -25.5t-127.5 -20.5q-61 -42 -131 -99
t-144 -122.5t-148 -137.5t-143 -144q-67 -70 -126 -137t-103.5 -125.5t-72.5 -105t-34 -75.5q-5 -21 1 -31.5t18 -13.5t27.5 -0.5t30.5 7.5q66 19 141.5 39t154.5 35t160 22t158.5 1.5t149.5 -27t133 -64.5q5 -3 2 -6.5t-6 -0.5q-61 42 -132 63t-148 26t-157.5 -2.5
t-159 -22.5t-153 -34.5t-140.5 -38.5q-45 -12 -70.5 -3.5t-23.5 52.5q3 42 34 102.5t83 132t121.5 151t148.5 158.5q57 58 117.5 113.5t121 106.5t119.5 95.5t114 80.5q-96 -9 -209.5 -13.5t-230.5 -4.5q-116 0 -224 3.5t-193 11t-138.5 19.5t-58.5 29q-5 13 12.5 22.5
t55.5 23.5zM1364 875q66 8 115.5 19t69.5 24q13 9 13.5 16.5t-7 12.5t-20.5 6.5t-28 -2.5q-36 -11 -75 -32.5t-68 -43.5z" />
    <glyph glyph-name="zcaron" unicode="&#x17e;" horiz-adv-x="457" 
d="M188 298q8 -6 7 -22t-5.5 -34.5t-10.5 -35t-8 -23.5q14 9 28 16.5t28 9.5q57 7 66 -52q46 25 87.5 56.5t76.5 76.5q3 3 6.5 0.5t1.5 -5.5q-37 -46 -80 -79t-91 -58q4 -36 -4 -77.5t-24 -83.5t-38 -82.5t-44 -74.5q-23 -36 -56 -75t-73.5 -69t-86.5 -44t-94 1
q-31 10 -51 29t-30 44t-10.5 53t8.5 56q24 71 77 118t120 81.5t139 61t134 56.5q0 9 -1 19t-5 19t-10.5 15t-17.5 5q-12 -2 -26 -8.5t-24 -14.5q-5 -5 -11 -5.5t-8 4.5q-4 9 -2.5 25t4 33t3.5 32.5t-3 24.5q-2 3 0.5 5.5t7.5 4t10.5 1.5t9.5 -4zM160 -159q22 37 40.5 76
t32 77t21 73.5t7.5 65.5q-39 -19 -84 -36.5t-91 -37t-90.5 -41.5t-82.5 -50t-67 -64t-45 -82q-8 -26 -7.5 -52.5t9.5 -49.5t27.5 -40.5t45.5 -26.5q47 -14 89.5 1t78.5 45.5t65.5 69.5t50.5 72z" />
    <glyph glyph-name="florin" unicode="&#x192;" horiz-adv-x="596" 
 />
    <glyph glyph-name="circumflex" unicode="&#x2c6;" 
 />
    <glyph glyph-name="caron" unicode="&#x2c7;" 
 />
    <glyph glyph-name="breve" unicode="&#x2d8;" 
d="M426 1281q0 10 8.5 9.5t8.5 -9.5q0 -21 -12 -36.5t-29.5 -25.5t-37.5 -14.5t-37 -2.5q-18 1 -35.5 7t-31.5 16.5t-23 24.5t-9 31q0 10 8.5 9.5t8.5 -9.5q0 -16 8.5 -27.5t21 -18.5t27 -10.5t26.5 -4.5q15 -1 32 2t31.5 10t24.5 19t10 30z" />
    <glyph glyph-name="ring" unicode="&#x2da;" 
d="M351 1160q23 0 39.5 -16t16.5 -38q0 -23 -17.5 -39t-39.5 -16q-23 0 -38.5 17t-15.5 38q0 23 16.5 38.5t38.5 15.5zM352 1142q-16 0 -27.5 -10.5t-11.5 -25.5q0 -17 12 -27.5t27 -10.5q16 0 27 12t11 26q0 16 -12 26t-26 10z" />
    <glyph glyph-name="ogonek" unicode="&#x2db;" 
d="M344 -12v-0.5t-0.5 -5t-2.5 -14t-6 -27.5q0 -4 -7.5 -4t-17.5 1t-19 0.5t-13 -6.5q-21 -27 -7 -57q5 -9 14 -13.5t23 -0.5q4 0 4 -3t-4 -4q-14 -4 -27.5 -1.5t-24.5 12.5q-17 17 -15.5 39.5t21.5 39.5q11 9 23 9t26 -3q7 28 8 33t2 5h23z" />
    <glyph glyph-name="tilde" unicode="&#x2dc;" horiz-adv-x="413" 
 />
    <glyph glyph-name="hungarumlaut" unicode="&#x2dd;" 
 />
    <glyph glyph-name="endash" unicode="&#x2013;" horiz-adv-x="296" 
 />
    <glyph glyph-name="emdash" unicode="&#x2014;" 
 />
    <glyph glyph-name="quoteleft" unicode="&#x2018;" horiz-adv-x="147" 
 />
    <glyph glyph-name="quoteright" unicode="&#x2019;" horiz-adv-x="137" 
 />
    <glyph glyph-name="quotesinglbase" unicode="&#x201a;" 
 />
    <glyph glyph-name="quotedblleft" unicode="&#x201c;" horiz-adv-x="233" 
 />
    <glyph glyph-name="quotedblright" unicode="&#x201d;" horiz-adv-x="242" 
 />
    <glyph glyph-name="quotedblbase" unicode="&#x201e;" 
 />
    <glyph glyph-name="dagger" unicode="&#x2020;" horiz-adv-x="161" 
 />
    <glyph glyph-name="daggerdbl" unicode="&#x2021;" horiz-adv-x="161" 
 />
    <glyph glyph-name="bullet" unicode="&#x2022;" 
 />
    <glyph glyph-name="ellipsis" unicode="&#x2026;" horiz-adv-x="270" 
 />
    <glyph glyph-name="perthousand" unicode="&#x2030;" 
 />
    <glyph glyph-name="guilsinglleft" unicode="&#x2039;" 
 />
    <glyph glyph-name="guilsinglright" unicode="&#x203a;" 
 />
    <glyph glyph-name="fraction" unicode="&#x2044;" 
 />
    <glyph glyph-name="Euro" unicode="&#x20ac;" horiz-adv-x="258" 
 />
    <glyph glyph-name="trademark" unicode="&#x2122;" horiz-adv-x="2534" 
 />
    <glyph glyph-name="minus" unicode="&#x2212;" 
 />
    <glyph glyph-name="_0000" unicode="&#xe000;" horiz-adv-x="0" 
 />
    <glyph glyph-name="_0127" unicode="&#xe001;" horiz-adv-x="0" 
 />
    <glyph glyph-name="_0014" unicode="&#xe002;" horiz-adv-x="0" 
 />
    <glyph glyph-name="_0015" unicode="&#xe003;" horiz-adv-x="0" 
 />
    <glyph glyph-name="_0016" unicode="&#xe004;" horiz-adv-x="0" 
 />
    <glyph glyph-name="_0017" unicode="&#xe005;" horiz-adv-x="0" 
 />
    <glyph glyph-name="_0018" unicode="&#xe006;" horiz-adv-x="0" 
 />
    <glyph glyph-name="_0020" unicode="&#xe007;" horiz-adv-x="0" 
 />
    <glyph glyph-name="_0021" unicode="&#xe008;" horiz-adv-x="0" 
 />
    <glyph glyph-name="_0022" unicode="&#xe009;" horiz-adv-x="0" 
 />
    <glyph glyph-name="_0023" unicode="&#xe00a;" horiz-adv-x="0" 
 />
    <glyph glyph-name="_0024" unicode="&#xe00b;" horiz-adv-x="0" 
 />
    <glyph glyph-name="_0019" unicode="&#xe00c;" horiz-adv-x="0" 
 />
    <glyph glyph-name="fi" unicode="&#xfb01;" horiz-adv-x="872" 
d="M248 295q89 -4 183 15t184 61q82 38 149.5 93.5t114.5 130.5q32 53 40.5 101t-2 87.5t-37 68t-65 43t-86 13t-99.5 -22.5q-50 -21 -93.5 -58.5t-81.5 -86t-70 -105t-57.5 -115.5t-45.5 -116.5t-34 -108.5zM620 362q-91 -43 -187 -61.5t-187 -15.5q-2 -8 -5.5 -25
t-5.5 -28q17 -9 35 -23.5t29 -31.5q38 -3 80.5 2.5t82.5 20t75 37t59 53.5q2 4 6 1.5t0 -7.5q-23 -31 -58.5 -54t-76 -37.5t-83.5 -20t-81 -2.5q16 -23 24 -51.5t8.5 -58t-7 -57.5t-22.5 -49q-14 -18 -27 -24t-25 -2t-22.5 15.5t-18.5 26.5q-12 23 -18.5 52.5t-8 61t0 63
t4.5 58.5q-16 10 -16.5 22.5t22.5 12.5q10 58 29.5 123.5t47 131.5t63.5 129.5t80.5 117.5t96.5 95.5t113 63.5q55 20 105 20.5t90.5 -15.5t68.5 -46.5t38.5 -71.5t1.5 -91.5t-43 -106.5q-48 -76 -117.5 -132.5t-150.5 -95.5zM234 223q-1 -2 -2.5 -12.5t-2.5 -14.5
q12 -5 29 -10.5t31 -7.5q-9 13 -25 25t-30 20zM228 189q-4 -24 -6.5 -51t-3 -54.5t2 -54t9.5 -50.5q4 -14 11 -24.5t16 -15t19.5 -0.5t22.5 20q15 22 22 50t6 56.5t-9 56t-24 49.5q-19 2 -35.5 7t-30.5 11zM195 232q-14 -1 -12 -7t9 -12q1 4 2 10t1 9zM724 287
q-5 -7 -10.5 -19t-10 -25.5t-7 -26t-0.5 -21.5q3 -15 14.5 -16.5t22.5 3.5q16 7 35.5 20.5t39 29t36.5 31t28 27.5q3 3 6 -0.5t1 -5.5q-12 -13 -29.5 -29t-37 -31.5t-39.5 -29t-36 -20.5q-17 -8 -35 -5.5t-25 22.5q-4 10 -4 26t3.5 32.5t9.5 29.5t15 18q3 2 8 1.5t9 -2t6 -4
t0 -5.5zM747 348q0 -7 -3.5 -15.5t-8.5 -13.5q-5 -4 -12 -2.5t-9 10.5q-1 10 3.5 17t11.5 12q5 4 11 2t7 -10z" />
    <glyph glyph-name="fl" unicode="&#xfb02;" horiz-adv-x="1121" 
d="M248 295q89 -4 183 15t184 61q82 38 149.5 93.5t114.5 130.5q32 53 40.5 101t-2 87.5t-37 68t-65 43t-86 13t-99.5 -22.5q-50 -21 -93.5 -58.5t-81.5 -86t-70 -105t-57.5 -115.5t-45.5 -116.5t-34 -108.5zM620 362q-91 -43 -187 -61.5t-187 -15.5q-2 -8 -5.5 -25
t-5.5 -28q17 -9 35 -23.5t29 -31.5q38 -3 80.5 2.5t82.5 20t75 37t59 53.5q2 4 6 1.5t0 -7.5q-23 -31 -58.5 -54t-76 -37.5t-83.5 -20t-81 -2.5q16 -23 24 -51.5t8.5 -58t-7 -57.5t-22.5 -49q-14 -18 -27 -24t-25 -2t-22.5 15.5t-18.5 26.5q-12 23 -18.5 52.5t-8 61t0 63
t4.5 58.5q-16 10 -16.5 22.5t22.5 12.5q10 58 29.5 123.5t47 131.5t63.5 129.5t80.5 117.5t96.5 95.5t113 63.5q55 20 105 20.5t90.5 -15.5t68.5 -46.5t38.5 -71.5t1.5 -91.5t-43 -106.5q-48 -76 -117.5 -132.5t-150.5 -95.5zM234 223q-1 -2 -2.5 -12.5t-2.5 -14.5
q12 -5 29 -10.5t31 -7.5q-9 13 -25 25t-30 20zM228 189q-4 -24 -6.5 -51t-3 -54.5t2 -54t9.5 -50.5q4 -14 11 -24.5t16 -15t19.5 -0.5t22.5 20q15 22 22 50t6 56.5t-9 56t-24 49.5q-19 2 -35.5 7t-30.5 11zM195 232q-14 -1 -12 -7t9 -12q1 4 2 10t1 9zM1121 290q2 3 5 1.5
t1 -5.5q-7 -14 -23 -42.5t-37 -63.5t-46.5 -71.5t-51.5 -65.5q-24 -26 -47.5 -43t-45 -18.5t-41.5 15t-37 57.5q-19 46 -23 101.5t1.5 112.5t18.5 112.5t28 101.5q26 78 64 154.5t86.5 141t106.5 112t123 67.5q37 12 73.5 13t67 -11.5t50.5 -40.5t24 -74q5 -62 -21 -121.5
t-68 -113.5t-92.5 -99.5t-95.5 -77.5q-78 -54 -161.5 -92t-161.5 -49q-13 -66 -14.5 -125.5t12.5 -104.5q12 -40 28.5 -55.5t36 -13.5t41 17.5t42.5 38.5q25 29 50.5 65t46.5 71t37 63.5t23 42.5zM821 300q74 11 157 49.5t159 91.5q44 31 93 75t90 96.5t66.5 111t21.5 118.5
q-3 43 -21 69t-46 38t-62 10t-70 -15q-51 -19 -96.5 -60t-85.5 -95t-74 -118t-60 -129t-44.5 -127.5t-27.5 -114.5z" />
    </font>
</defs>
</svg>
